<svg width="43" height="43" viewBox="0 0 43 43" fill="none" xmlns="http://www.w3.org/2000/svg">
<g clip-path="url(#clip0_1760_32129)">
<path d="M22.2437 0H18.8419C18.4255 0.163846 17.48 0.206345 17.0041 0.292097C13.5593 0.915542 10.785 2.52308 8.03481 4.67757C5.24637 6.86197 3.23502 9.8751 1.6768 13.0476C0.78767 14.8577 0.354153 16.987 0.17334 18.968C0.135998 19.3799 0.111725 20.2178 0 20.5897V23.0394C0.0656662 23.2849 0.0718918 23.6436 0.0986557 23.9097C0.157162 24.4798 0.219093 25.0496 0.285069 25.6189C0.515053 27.4641 1.35252 29.9598 2.24071 31.5728C3.24498 33.3958 4.89346 35.8243 6.46631 37.1796C8.27195 38.7359 11.1535 40.1051 13.4128 40.8159C14.1864 41.0458 15.0187 41.231 15.7856 41.4648C17.6834 42.0436 19.5443 42.5701 21.543 42.4537C22.3585 42.4064 23.0088 42.3839 23.8334 42.1984C25.1481 41.9028 26.3994 41.4645 27.6875 41.0734C29.4754 40.4832 31.2604 40.0664 32.8984 39.1219C34.2684 38.3318 35.2307 37.3375 36.308 36.2033C36.5866 35.91 37.1053 35.4174 37.3445 35.1167C38.6222 33.5106 39.9768 31.69 40.5665 29.6874C40.8359 28.8184 40.9309 27.8895 41.1709 27.0174C41.4513 25.9986 41.8258 25.0143 42.003 23.964C42.0608 23.6209 42.0916 23.1913 42.1897 22.8644L42.2 22.831V20.281C42.0936 20.0398 41.9953 19.0627 41.9389 18.7367C41.754 17.6674 41.4477 16.7482 41.1336 15.7231C40.3884 13.2904 39.3943 11.0395 38.0221 8.90959C36.6616 6.79788 34.972 5.05014 32.8202 3.76728C32.4362 3.53838 32.0696 3.25778 31.6778 3.03927C29.8384 2.01355 27.8882 1.2594 25.8674 0.698903C24.6679 0.364063 23.4882 0.2076 22.2699 0.00974087C22.2612 0.00649394 22.2524 0.00324697 22.2437 0Z" fill="#60240A"/>
<path d="M29.7239 2.97478C27.1976 1.6248 23.1361 0.682989 20.2728 0.730215C18.8839 0.753124 17.1673 1.07552 15.8073 1.36895C14.4354 1.76 13.2907 2.15895 12.0375 2.88926C11.9086 2.96435 11.5304 3.17079 11.4373 3.27007C11.4083 3.28929 11.1734 3.44274 11.1603 3.45501C10.7674 3.68556 10.4282 3.94551 10.052 4.19714C8.29424 5.37325 6.63705 6.89383 5.30009 8.54997C4.88556 9.06355 4.44365 9.76785 4.09727 10.3447C3.8343 10.783 3.45618 11.319 3.32143 11.7987C3.28315 11.9352 3.27132 12.2274 3.26261 12.3799C3.10296 12.4664 2.90938 12.572 2.7905 12.716C2.26891 13.3489 1.87337 14.546 1.63218 15.3183C1.44888 15.9041 1.24597 16.8778 1.16257 17.4815C1.05769 17.9539 1.0275 18.3722 0.959969 18.8379C0.753639 20.259 0.750839 21.6548 0.794098 23.0867C0.800011 23.2894 0.810898 23.9532 0.858204 24.1248C0.927605 24.5142 0.962147 24.9526 1.02594 25.3599C1.16661 26.2617 1.36485 27.1533 1.61942 28.0289C2.55119 31.1465 5.11275 35.1203 7.69859 37.0994C7.71415 37.1099 7.7294 37.1201 7.74465 37.1305C7.93262 37.3053 8.23138 37.4581 8.44923 37.6025C9.3315 38.186 10.2038 38.6031 11.1439 39.0681C11.3654 39.1987 13.0135 39.899 13.1889 39.9082C13.6706 40.0843 14.5004 40.2888 15.0227 40.4481C16.49 40.8949 17.969 41.2962 19.479 41.5623C20.5111 41.744 21.3833 41.7817 22.4231 41.6479C24.3966 41.4008 26.2556 40.7015 28.1354 40.0928C29.9478 39.5064 31.7516 39.0655 33.3164 37.9054C33.9713 37.4198 34.4946 36.8815 35.0836 36.3246C37.1893 34.3338 38.9845 31.9214 39.9071 29.1239C40.0316 28.7464 40.1018 28.4727 40.1625 28.0845C40.2054 27.8108 40.2418 27.1372 40.3129 26.9178C40.5079 26.3153 40.733 25.9199 40.8412 25.262C42.0613 21.4489 41.2065 17.9464 39.8118 14.3373C39.5413 13.6371 39.0978 12.3827 38.6988 11.7653C38.6983 11.763 38.6976 11.7608 38.697 11.7586C37.7082 9.35978 35.7137 6.90385 33.7101 5.34125C32.4937 4.39261 31.0127 3.57677 29.7239 2.97478Z" fill="#F5C360"/>
<path d="M2.16283 23.8174C1.69695 24.0008 1.36488 24.0925 0.857613 24.1252C0.927013 24.5145 0.961555 24.9529 1.02536 25.3602C1.16602 26.2621 1.36427 27.1536 1.61883 28.0292C2.55059 31.1468 5.11216 35.1207 7.69799 37.0998C7.71355 37.1102 7.72881 37.1204 7.74405 37.1309C7.93203 37.3056 8.23079 37.4585 8.44863 37.6028C9.33091 38.1864 10.2032 38.6035 11.1433 39.0684C11.3648 39.1991 13.0129 39.8994 13.1883 39.9086C13.67 40.0846 14.4998 40.2892 15.0222 40.4484C16.4894 40.8953 17.9684 41.2965 19.4784 41.5626C20.5105 41.7443 21.3827 41.7821 22.4225 41.6482C24.396 41.4012 26.255 40.7018 28.1348 40.0932C29.9472 39.5067 31.751 39.0659 33.3158 37.9057C33.9707 37.4201 34.494 36.8819 35.083 36.3249C37.1887 34.3341 38.9839 31.9218 39.9065 29.1243C40.031 28.7468 40.1012 28.4731 40.1619 28.0849C40.2048 27.8112 40.2412 27.1376 40.3123 26.9181C40.5073 26.3156 40.7324 25.9203 40.8406 25.2624C40.4891 25.2604 39.7561 25.8611 39.6673 26.2626C39.2802 28.0115 38.2122 29.911 37.223 31.3713C36.3063 32.7245 34.9171 34.3037 33.5134 35.0772C32.2035 35.7994 30.7513 36.4448 29.3756 37.0284C28.88 37.2352 28.286 37.3275 27.7786 37.533C27.3599 37.7027 26.9774 37.9019 26.5692 38.089C25.9453 38.3745 25.3 38.6085 24.6394 38.789C23.6312 39.0519 22.5993 39.2099 21.5598 39.26C20.0268 39.3472 16.14 39.1731 14.8683 38.3554C13.9838 37.7871 13.5022 36.7011 12.5359 36.1315C12.0904 35.8689 11.6004 35.5777 11.1088 35.4159C10.4239 35.1908 9.73268 35.1124 9.09968 34.7309C8.67488 34.4746 8.27622 34.1375 7.92487 33.7851C7.2346 33.0937 6.63708 32.2893 6.03271 31.5212C5.27865 30.5635 4.50965 29.6187 3.8642 28.5788C3.55424 28.0792 3.2894 27.544 3.05475 27.004C2.74852 26.3 2.53036 25.5458 2.36386 24.7959C2.29167 24.4711 2.24187 24.1403 2.16283 23.8174Z" fill="#E39E41"/>
<path d="M11.3484 37.0544C10.3202 36.5628 8.70717 36.4179 7.74367 37.1315C7.93164 37.3062 8.2304 37.4591 8.44825 37.6034C9.33053 38.187 10.2028 38.6041 11.1429 39.069L11.1783 39.0253C11.2787 38.6612 11.1246 37.7744 11.0388 37.3925C11.1432 37.2809 11.2464 37.1683 11.3484 37.0544Z" fill="#84471F"/>
<path d="M11.35 37.0537C11.248 37.1676 11.1448 37.2802 11.0403 37.3918C11.1262 37.7737 11.2803 38.6605 11.1799 39.0246L11.1445 39.0683C11.366 39.199 13.0141 39.8993 13.1895 39.9085C13.2686 38.4686 12.6358 37.6062 11.35 37.0537Z" fill="#713516"/>
<path d="M1.16543 17.4824C1.06055 17.9547 1.03036 18.3731 0.962832 18.8388C0.7565 20.2599 0.753701 21.6557 0.796959 23.0876C0.802872 23.2903 0.813762 23.9541 0.861066 24.1257C1.36834 24.093 1.7004 24.0014 2.16628 23.8179C2.96142 23.2987 3.48238 22.6903 3.75936 21.7528C4.04505 20.7942 3.94391 19.759 3.47834 18.8766C3.14348 18.2508 2.55591 17.6217 1.82675 17.5813C1.64096 17.571 1.34811 17.5994 1.19966 17.5541L1.16543 17.4824Z" fill="#84471F"/>
<path d="M15.8072 1.36914C14.4353 1.76019 13.2906 2.15914 12.0373 2.88945C11.9085 2.96454 11.5303 3.17098 11.4371 3.27026C11.6357 3.70237 11.7151 4.09676 12.0001 4.48754C12.8378 5.63618 13.9382 5.47265 15.0978 5.09323C15.6641 4.9179 16.4455 4.21655 16.5682 3.62003C16.7049 3.07928 16.664 2.53513 16.4121 2.03575C16.307 1.82748 15.8787 1.51654 15.8072 1.36914Z" fill="#84471F"/>
<path d="M29.7239 2.97559L29.6369 3.01311L29.6318 3.04971L29.7762 3.07405L29.784 3.11697L29.7379 3.14584L29.6271 3.11075C29.7725 3.29695 29.8721 3.41436 29.724 3.6563C29.6509 3.70501 29.5879 3.74015 29.4891 3.70983C29.0916 3.58782 28.5283 3.25407 28.0996 3.24278L28.0997 3.2699L28.1251 3.24348L28.1116 3.24427C28.209 3.38442 30.0432 4.08228 30.358 4.2277C31.214 4.63015 32.0268 5.12198 32.7832 5.69531C33.1711 5.98454 33.5519 6.29425 33.9411 6.57751C34.2651 6.81332 35.0224 6.94367 35.1698 7.41365C34.9988 7.66468 34.9692 7.90294 35.2498 8.09707C36.1526 8.11623 37.8305 12.8791 38.7958 12.6327C38.9422 12.4701 38.7412 11.9717 38.6989 11.7661C38.6983 11.7638 38.6976 11.7617 38.697 11.7594C37.7082 9.36059 35.7137 6.90466 33.7101 5.34206C32.4937 4.39342 31.0128 3.57758 29.7239 2.97559Z" fill="#F6D79C"/>
<path d="M35.1703 7.41309C34.9994 7.66412 34.9698 7.90238 35.2504 8.09651C35.5687 7.91392 35.4024 7.5731 35.1703 7.41309Z" fill="#F8E9CE"/>
<path d="M11.4378 3.27051C11.4088 3.28973 11.1739 3.44317 11.1608 3.45545C11.2495 3.68438 11.1914 4.16586 11.1922 4.42397C11.1873 5.12246 11.7652 5.76424 12.3447 6.0678C12.8392 6.32683 13.5208 6.34097 14.0479 6.17691C14.4436 6.05372 15.0391 5.53322 15.0984 5.09347C13.9389 5.4729 12.8385 5.63643 12.0008 4.48778C11.7157 4.09701 11.6363 3.70261 11.4378 3.27051Z" fill="#E39E41"/>
<path d="M22.2777 20.376C21.0112 20.324 19.424 20.2761 18.1868 20.5507C17.7273 20.7099 17.5768 21.1744 17.5902 21.5973C17.6429 23.2614 18.2082 24.7124 19.8346 25.4091C20.1473 25.5164 20.4593 25.5943 20.7901 25.6164C21.649 25.6698 22.4938 25.3752 23.1404 24.7967C23.9928 24.0244 24.3297 22.9792 24.4211 21.8504C24.5458 20.3095 23.4076 20.4254 22.2777 20.376Z" fill="#60240A"/>
<path d="M20.5548 22.4685C19.9791 22.4357 19.0758 22.5428 18.5856 22.8986C18.2517 23.141 18.8745 23.9761 19.0845 24.1896C19.6732 24.7879 20.3332 24.9937 21.1498 24.9906C22.0811 24.8867 22.7791 24.513 23.2781 23.6819C22.5995 22.9208 21.5459 22.5308 20.5548 22.4685Z" fill="#F7987A"/>
<path d="M29.0691 15.6427C27.4521 15.4596 25.9937 16.6422 25.8054 18.2891C25.617 19.9361 26.7695 21.4287 28.3845 21.6295C30.0118 21.8318 31.4901 20.6464 31.6798 18.9869C31.8696 17.3273 30.6985 15.8272 29.0691 15.6427Z" fill="#60240A"/>
<path d="M29.7479 16.4663C29.0862 16.4482 28.537 16.9833 28.5249 17.6577C28.5129 18.3322 29.0427 18.8872 29.7046 18.8937C30.3584 18.9 30.895 18.368 30.9068 17.7018C30.9187 17.0356 30.4015 16.4842 29.7479 16.4663Z" fill="#FDFCFC"/>
<path d="M27.8792 19.114C27.5627 19.0113 27.2244 19.1899 27.1244 19.5128C27.0243 19.8356 27.2004 20.1799 27.5174 20.2811C27.8334 20.382 28.1699 20.2033 28.2696 19.8815C28.3693 19.5597 28.1947 19.2164 27.8792 19.114Z" fill="#FDFCFC"/>
<path d="M13.4331 15.6469C11.8088 15.4568 10.3417 16.6471 10.1593 18.3031C9.97694 19.959 11.1486 21.4511 12.7739 21.6328C14.3934 21.8138 15.8511 20.6249 16.0329 18.9749C16.2146 17.3249 15.0517 15.8363 13.4331 15.6469Z" fill="#60240A"/>
<path d="M14.3417 16.501C13.9255 16.3965 13.4863 16.5284 13.1921 16.8462C12.898 17.164 12.7944 17.6185 12.921 18.0359C13.0476 18.4533 13.3848 18.769 13.8036 18.8622C14.4393 19.0036 15.0686 18.5981 15.2158 17.9522C15.363 17.3062 14.9735 16.6596 14.3417 16.501Z" fill="#FDFCFC"/>
<path d="M12.1784 19.1045C11.9664 19.0519 11.7431 19.1193 11.5935 19.2811C11.444 19.4429 11.3912 19.6741 11.4552 19.8865C11.5193 20.099 11.6904 20.26 11.9034 20.3082C12.228 20.3817 12.5501 20.1751 12.6255 19.8451C12.7009 19.515 12.5014 19.1847 12.1784 19.1045Z" fill="#FDFCFC"/>
<path d="M28.2292 34.843C28.516 34.2896 28.7584 33.7162 28.5438 33.0844C28.0798 31.7183 26.616 30.89 25.2325 31.3509C23.8874 31.7989 23.1043 33.3758 23.518 34.7457C23.6866 35.3045 24.2768 35.9306 24.8265 36.1371C25.2083 36.6372 25.786 36.8019 26.392 36.7882C27.2919 36.7679 28.3103 35.8025 28.2292 34.843Z" fill="#84471F"/>
<path d="M28.2267 34.8428C27.3581 35.7045 26.8494 36.1939 25.5081 36.2012C25.2525 36.2028 25.0676 36.1542 24.824 36.1368C25.2058 36.637 25.7836 36.8016 26.3896 36.7879C27.2895 36.7676 28.3078 35.8022 28.2267 34.8428Z" fill="#E39E41"/>
<path d="M37.3177 15.3693C37.8909 14.3735 38.3037 13.5161 37.8509 12.4075C37.5759 11.7343 37.0847 11.2874 36.4613 10.9697C35.4663 10.4628 33.886 10.9284 33.3941 11.9579C33.1202 12.5496 33.2675 13.38 33.4999 13.9846C33.4424 14.1618 33.4309 14.2591 33.4651 14.4424C33.6605 15.4899 34.5692 16.4398 35.6352 16.5242C36.3768 16.583 37.0018 16.2298 37.3081 15.5395C37.3215 15.5089 37.319 15.4065 37.3177 15.3693Z" fill="#84471F"/>
<path d="M33.4983 13.9854C33.4408 14.1625 33.4294 14.2598 33.4636 14.4432C33.659 15.4906 34.5677 16.4405 35.6336 16.5249C36.3752 16.5837 37.0003 16.2306 37.3065 15.5403C37.3199 15.5096 37.3174 15.4072 37.3161 15.37C37.1663 15.5234 36.9923 15.6501 36.8015 15.7451C36.2913 15.9972 35.7895 15.9343 35.2697 15.739C34.4506 15.4313 33.8615 14.775 33.4983 13.9854Z" fill="#E39E41"/>
<path d="M14.5222 33.0876C15.5106 31.7971 15.3734 30.6203 14.1045 29.5994C13.2478 28.9102 11.6316 28.4512 10.831 29.4652C10.0025 30.533 10.1086 32.5259 11.2718 33.3087C11.2758 33.3268 11.2798 33.3445 11.2838 33.3623L11.2904 33.3867C11.4187 33.8796 12.1325 34.2605 12.5983 34.3315C13.0623 34.407 13.5365 34.2856 13.9101 33.995C14.1562 33.8063 14.4801 33.4035 14.5222 33.0876Z" fill="#84471F"/>
<path d="M14.5203 33.0879C13.2898 33.7216 12.6066 33.9306 11.2699 33.309C11.2739 33.327 11.2779 33.3448 11.2819 33.3626L11.2885 33.387C11.4168 33.8799 12.1306 34.2608 12.5964 34.3318C13.0605 34.4073 13.5346 34.2858 13.9082 33.9953C14.1543 33.8066 14.4782 33.4038 14.5203 33.0879Z" fill="#E39E41"/>
<path d="M22.6493 10.3721L22.6682 10.3583C23.6465 9.62831 23.8818 8.26073 23.1527 7.25935C22.3786 6.19609 20.6275 6.0939 19.6345 6.87926C19.1292 7.27898 18.9862 7.73805 18.9168 8.35614C18.8814 8.72532 18.7737 8.74054 18.6436 9.06525C18.1747 10.2361 19.5739 11.5583 20.6119 11.6647C21.1191 11.7176 21.6263 11.5632 22.0218 11.2353C22.2219 11.0697 22.6181 10.6318 22.6493 10.3721Z" fill="#84471F"/>
<path d="M18.9167 8.35645C18.8813 8.72562 18.7736 8.74085 18.6435 9.06556C18.1746 10.2364 19.5738 11.5586 20.6118 11.665C21.1191 11.7179 21.6262 11.5635 22.0218 11.2356C22.2218 11.07 22.618 10.6321 22.6492 10.3724C22.1173 10.5542 21.8559 10.6781 21.2658 10.6965C19.8316 10.7415 18.917 9.81499 18.9167 8.35645Z" fill="#E39E41"/>
<path d="M34.146 25.0365C30.8923 24.9934 30.7985 29.3084 33.8993 29.7287C34.5368 29.7894 35.1823 29.6595 35.6889 29.2408C36.1003 28.9055 36.3594 28.4134 36.4063 27.8787C36.4714 27.1979 36.2795 26.5844 35.853 26.059C35.4588 25.5734 34.7736 25.0936 34.146 25.0365Z" fill="#84471F"/>
<path d="M31.1026 21.799C30.239 21.7256 29.4377 21.7884 28.6829 22.276C28.1256 22.6359 27.7562 23.2244 28.1848 23.8541C28.6144 24.4852 29.3889 24.6565 30.0842 24.7953C30.9918 24.8676 31.8762 24.7911 32.6629 24.2694C33.1733 23.9309 33.4902 23.2628 33.0626 22.7206C32.5904 22.1219 31.818 21.9077 31.1026 21.799Z" fill="#F7987A"/>
<path d="M30.4185 22.5095C30.2785 22.4989 30.2209 22.4996 30.1185 22.5908C30.0338 22.9033 30.7112 23.7848 30.9337 23.9911C31.0264 24.0283 31.0416 24.0245 31.141 24.0097C31.4817 23.7426 30.6157 22.7473 30.4185 22.5095Z" fill="#F16D49"/>
<path d="M31.6387 22.6104C31.1137 22.7244 31.983 23.7781 32.2383 23.8814C32.3398 23.8607 32.3795 23.8637 32.4498 23.7941C32.6106 23.4315 31.9081 22.7805 31.6387 22.6104Z" fill="#F16D49"/>
<path d="M29.1309 22.6025C29.0277 22.638 29.0137 22.6434 28.931 22.7151C28.7971 23.0165 29.3841 23.7105 29.5937 23.9028C30.2783 23.7148 29.3703 22.8542 29.1309 22.6025Z" fill="#F16D49"/>
<path d="M10.9767 21.8672C10.2049 21.8798 9.38646 22.0014 8.76342 22.5085C8.25864 22.9122 8.1354 23.5649 8.59194 24.0641C9.17359 24.6997 9.99581 24.8493 10.8006 24.8938C11.5717 24.9072 12.5814 24.7527 13.1182 24.2222C14.2566 23.0972 12.9381 22.1384 11.8299 21.9629C11.4951 21.9099 11.294 21.8821 10.9767 21.8672Z" fill="#F7987A"/>
<path d="M10.8253 22.5029C10.1487 22.6642 11.2582 24.0488 11.4627 24.1147C11.5319 24.1065 11.5568 24.0918 11.6195 24.0648C11.6566 24.0198 11.6898 23.976 11.6882 23.9143C11.6795 23.5703 11.0313 22.7235 10.8253 22.5029Z" fill="#F16D49"/>
<path d="M12.1537 22.7373C12.0091 22.7456 12.0177 22.7434 11.9321 22.8249C11.8168 23.1619 12.4058 23.8388 12.7045 23.9617C12.8355 23.9406 12.855 23.9215 12.92 23.819C12.9665 23.5081 12.3987 22.8808 12.1537 22.7373Z" fill="#F16D49"/>
<path d="M9.72638 22.7669C9.56673 22.757 9.5353 22.7427 9.441 22.8698C9.39494 23.1759 9.85491 23.7958 10.097 23.9548L10.163 23.9718C10.2604 23.9406 10.2697 23.9292 10.3398 23.8523C10.4366 23.5582 9.94983 22.935 9.72638 22.7669Z" fill="#F16D49"/>
<path d="M30.053 5.0646C29.2847 5.0135 28.6204 5.60511 28.5671 6.38793C28.5139 7.17076 29.0917 7.85012 29.8596 7.90756C30.6319 7.96532 31.3032 7.37232 31.3568 6.58499C31.4103 5.79769 30.8257 5.11598 30.053 5.0646Z" fill="#84471F"/>
<path d="M7.56279 9.17188C6.06214 9.18732 5.62303 11.009 6.98083 11.4808C8.36323 11.5489 9.04228 9.88476 7.56279 9.17188Z" fill="#84471F"/>
<path d="M40.1453 20.2558C40.1791 20.6682 40.184 21.0826 40.1599 21.4957C40.1415 21.8172 39.9331 23.2493 40.1844 23.3967C40.2372 23.3747 40.2481 23.3684 40.2832 23.3191C40.824 22.5588 40.7199 20.8211 40.5996 19.9473C40.5768 20.0763 40.6003 20.0746 40.4864 20.1542C40.4084 20.2087 40.2412 20.264 40.1453 20.2558Z" fill="#F8E9CE"/>
<path d="M40.5984 19.9471C40.5007 19.298 40.4012 18.712 39.9586 18.1953C39.8918 18.9619 40.0184 19.5013 40.1441 20.2557C40.24 20.2639 40.4073 20.2086 40.4853 20.1541C40.5992 20.0744 40.5756 20.0761 40.5984 19.9471Z" fill="#FDFCFC"/>
</g>
<defs>
<clipPath id="clip0_1760_32129">
<rect width="42.2" height="42.5" fill="white" transform="matrix(-1 0 0 1 42.2 0)"/>
</clipPath>
</defs>
</svg>
