<svg width="95" height="105" viewBox="0 0 95 105" fill="none" xmlns="http://www.w3.org/2000/svg">
<path d="M56.8016 3.5162C57.8622 2.55253 59.2758 1.86812 60.6639 1.27833C67.1399 -1.47301 75.6965 0.467504 80.7711 4.70806C82.6027 6.23868 82.7654 7.34517 83.886 9.0685C86.1783 9.27788 87.7251 9.60257 89.7162 10.6996C95.9186 14.116 97.0149 22.9183 91.1034 27.0279C88.8539 28.622 85.9647 29.339 83.102 29.0133C82.6393 28.9614 82.141 28.8783 81.6813 28.8026C81.2328 30.5014 80.7691 32.2136 80.3806 33.9231C79.9393 35.8666 79.8528 37.831 79.0627 39.6908C80.9796 41.129 82.7328 42.6111 83.5027 44.7883C83.6481 45.1995 83.9115 46.4445 84.0752 46.6394C85.8549 48.7159 87.0854 49.7289 87.2827 52.4976C87.4169 54.3758 87.1973 56.5534 87.4383 58.3643C87.7047 60.365 88.0179 61.047 87.4311 63.1677C87.0854 64.4139 87.0345 66.151 86.6644 67.4505C86.5261 68.1897 86.7559 69.5134 86.6501 70.3568C86.5311 71.298 86.2149 71.9472 85.984 72.8477C85.7979 73.5608 85.7847 74.6378 85.5833 75.3258C85.1247 76.8991 84.0732 79.4893 82.682 80.6038C80.8942 82.0364 80.9206 83.349 79.7287 85.0127C78.5094 86.7168 76.6342 87.559 74.765 88.5741C74.3542 88.8133 72.7402 90.2002 72.0823 90.6607C71.7996 94.0984 71.1914 97.2324 70.4582 100.618C71.4141 101.581 71.5169 102.156 71.4436 103.41C70.924 104.142 70.1806 104.715 69.2023 104.848C66.6701 105.192 61.0117 105.128 59.709 102.749C58.7053 100.916 58.03 97.3793 57.5399 95.2909C54.4788 95.8025 53.2748 95.7577 50.1527 95.5462C49.5395 102.463 49.8832 104.421 40.3899 104.12C37.0253 104.014 35.98 102.218 38.4165 99.939C37.8945 98.2985 37.508 97.2754 37.1811 95.5606C36.9015 94.0939 36.7764 92.7321 36.5377 91.3004C35.6678 90.4421 33.9102 89.1555 32.9072 88.3062C32.7113 88.1395 31.068 87.2293 30.698 86.9927C28.7725 85.7707 27.2647 84.106 26.3385 82.1806C25.7804 81.0088 25.3749 79.8727 25.1975 78.6121C25.1785 78.4768 25.0862 78.3165 24.9314 78.2681C24.2056 79.0323 24.2023 79.7831 23.2671 80.7552C23.1655 81.101 23.0397 81.3913 22.9021 81.7255C21.9746 82.2039 21.9583 82.3392 21.3899 83.1742C20.0507 83.6159 20.4004 84.1849 18.8349 84.278L18.7159 84.373C17.6998 85.1677 17.0146 84.717 15.6366 85.0468C14.3771 84.5656 13.6644 84.8729 12.9852 84.0101C12.8557 83.9752 12.7271 83.9376 12.5996 83.8982L12.4577 83.8525C11.6215 83.5909 10.0886 81.8554 9.52018 81.1781C9.28475 80.8968 9.36235 80.352 9.21855 80.1442C8.64641 79.3172 7.8958 78.3935 7.74784 77.4125C7.71946 77.1088 7.76339 76.7871 7.47864 76.5676C6.53176 75.8383 7.60322 75.3859 6.72366 74.558C5.57298 73.8215 4.16419 73.3951 3.16056 72.4069C2.18958 71.4497 1.34469 70.1715 1.40245 68.8419C1.41852 68.4713 1.72229 67.6863 1.60442 67.2738C-0.302975 64.7512 -0.666943 61.2213 1.37245 58.6368C1.92974 57.8026 2.81226 57.2262 3.72406 56.7315C2.66256 56.6385 2.35137 56.6817 1.52418 56.0845C0.327129 55.0224 0.690385 53.7904 1.99951 52.9554C2.88344 52.3833 3.90538 52.2959 4.95742 52.2753C4.4648 50.4524 4.27331 49.1097 5.06979 47.3201C5.61976 46.0236 6.73454 44.9743 8.16651 44.4052C11.9531 42.902 16.2788 45.0601 16.8472 48.6681C17.1994 52.4384 15.6396 54.934 11.2659 55.7639C11.2295 56.0572 11.1091 56.7385 11.2062 56.9829C13.8229 58.3419 14.6891 60.2819 15.2792 62.7474C15.3552 62.8798 15.3693 62.9742 15.5523 63.0048C17.8414 63.3876 20.2497 63.1072 22.2319 62.2008C22.2212 60.078 22.3683 58.8848 22.9897 56.8081C23.1783 55.9851 23.6392 54.9844 23.7714 54.1805C24.0768 52.3243 24.115 50.2981 25.1168 48.595C26.2765 46.6233 27.9014 45.8324 28.3506 43.5113C28.5422 42.5215 30.4325 40.7195 31.1815 39.993C32.3746 38.7482 34.1962 37.7686 35.4058 36.7235C37.596 34.8308 38.2611 34.9566 40.9569 33.9914C42.515 33.4336 42.6079 32.8983 44.6485 32.4706C45.1006 28.85 47.1395 24.8963 48.0507 21.3241C45.265 20.6728 43.1637 19.1414 41.7271 16.9579C36.3781 8.82821 47.4486 -0.471347 56.8016 3.5162ZM9.20543 77.0944C9.14278 78.1104 9.66123 78.7161 10.0518 79.6281C10.1555 79.87 10.4441 80.0241 10.672 80.1657C11.4216 82.7433 17.1447 85.1283 19.0615 82.9207C20.7675 82.591 20.0447 81.782 21.2189 81.6959C21.3644 81.5239 21.4202 81.3331 21.5366 81.1754C22.1173 80.3915 22.3739 80.4515 22.5092 79.4964C22.7088 79.2948 23.0336 79.0377 23.2601 78.846C23.3809 78.0011 23.405 77.8103 23.9775 77.1204L23.6533 75.8912C19.1674 76.9941 12.3328 76.2952 8.10621 74.6718C8.52784 75.8535 8.30949 76.2872 9.20543 77.0944Z" fill="#5A230D"/>
<path d="M5.06979 47.3201C5.61976 46.0236 6.73454 44.9743 8.16651 44.4052C11.9531 42.902 16.2788 45.0601 16.8472 48.6681C17.1994 52.4384 15.6396 54.934 11.2659 55.7639C11.2295 56.0572 11.1091 56.7385 11.2062 56.9829C11.1761 56.995 11.0478 56.9801 11.0054 56.9775C10.9011 56.7066 10.6501 56.4556 10.33 56.3806L10.2492 56.5703L10.142 56.8132L9.81631 56.8323L9.63916 57.0054C8.0518 56.6019 7.6859 56.5555 6.14786 56.9826C5.93227 57.0321 5.44606 57.1602 5.2505 57.1625C5.35738 56.852 5.76701 57.0382 6.07739 56.7488L5.77443 56.6814C4.75779 57.0859 4.22073 57.269 3.44612 57.9837C3.39944 57.8151 3.42273 57.8724 3.31514 57.7247L2.89788 57.79L2.94568 57.7442C3.21629 57.4884 3.46128 57.4183 3.62368 57.1077C2.93531 56.9336 1.76327 58.7013 1.37245 58.6368C1.92974 57.8026 2.81226 57.2262 3.72406 56.7315C2.66256 56.6385 2.35137 56.6817 1.52418 56.0845C0.327129 55.0224 0.690385 53.7904 1.99951 52.9554C2.88344 52.3833 3.90538 52.2959 4.95742 52.2753C4.4648 50.4524 4.27331 49.1097 5.06979 47.3201Z" fill="#60311E"/>
<path d="M2.75123 53.041C3.76808 52.66 4.31297 52.6434 5.37456 52.789L5.28345 53.0863C5.59626 53.3863 6.16199 53.8854 6.30091 54.2632C6.35643 54.4749 6.41887 54.7504 6.49982 54.9477C6.9425 54.9185 7.22461 54.8462 7.57871 55.0702C7.44081 55.3132 7.29671 55.5027 7.30373 55.7708C6.86756 55.9401 6.84498 55.959 6.46291 55.6416C6.1926 55.8822 6.16443 56.1911 6.02206 56.3735C5.89657 56.5344 5.84328 56.2437 5.77443 56.6814C4.75779 57.0859 4.22073 57.269 3.44612 57.9837C3.39944 57.8151 3.42273 57.8724 3.31514 57.7247L2.89788 57.79L2.94568 57.7442C3.21629 57.4884 3.46128 57.4183 3.62368 57.1077C2.93531 56.9336 1.76327 58.7013 1.37245 58.6368C1.92974 57.8026 2.81226 57.2262 3.72406 56.7315C2.66256 56.6385 2.35137 56.6817 1.52418 56.0845C1.69666 56.0935 1.75981 56.0916 1.93238 56.0796C1.82103 55.9205 1.78137 55.8696 1.70825 55.6923L1.65862 55.5691C1.17923 54.2859 1.5438 53.7502 2.75123 53.041Z" fill="#754A34"/>
<path d="M2.75123 53.041C3.76808 52.66 4.31297 52.6434 5.37456 52.789L5.28345 53.0863C5.59626 53.3863 6.16199 53.8854 6.30091 54.2632C6.18955 54.3355 5.99003 54.4743 5.88 54.5311C5.79152 54.1301 5.7363 53.8929 5.3225 53.6761C4.53752 53.861 4.3569 53.7435 3.45273 54.0645C2.86615 54.6033 3.10239 55.0895 2.63337 55.4336L3.35714 55.4011L3.51659 55.5483C3.51375 55.6535 3.49819 55.8085 3.52554 55.9033L3.73545 56.2086L3.44429 56.2681C2.45408 56.2634 2.41757 56.135 1.65862 55.5691C1.17923 54.2859 1.5438 53.7502 2.75123 53.041Z" fill="#60311E"/>
<path d="M2.75123 53.041C3.76808 52.66 4.31297 52.6434 5.37456 52.789L5.28345 53.0863C3.79737 53.0028 0.607194 53.6261 2.20198 55.5641C2.46445 55.8832 3.04839 55.7572 3.44429 56.2681C2.45408 56.2634 2.41757 56.135 1.65862 55.5691C1.17923 54.2859 1.5438 53.7502 2.75123 53.041Z" fill="#C6926B"/>
<path d="M3.11236 53.8957L3.45273 54.0645C2.86615 54.6033 3.10239 55.0895 2.63337 55.4336C2.04781 54.7089 2.25649 54.2934 3.11236 53.8957Z" fill="#DACBCB"/>
<path d="M3.11236 53.8957C3.24771 53.8382 3.3849 53.7843 3.52371 53.7338C4.13958 53.5125 4.69677 53.4479 5.3225 53.6761C4.53752 53.861 4.3569 53.7435 3.45273 54.0645L3.11236 53.8957Z" fill="#BD8763"/>
<path d="M3.52554 55.9033C3.89449 55.4465 5.05514 55.0926 5.63094 55.4302C5.77321 56.3225 4.4344 56.3709 3.73545 56.2086L3.52554 55.9033Z" fill="#F8D198"/>
<path d="M6.30091 54.2632C6.35643 54.4749 6.41887 54.7504 6.49982 54.9477C6.16494 55.1328 5.6043 55.3539 5.32626 55.0009C5.46945 54.6601 5.44799 54.7532 5.88 54.5311C5.99003 54.4743 6.18955 54.3355 6.30091 54.2632Z" fill="#55210E"/>
<path d="M5.06979 47.3201C5.61976 46.0236 6.73454 44.9743 8.16651 44.4052C11.9531 42.902 16.2788 45.0601 16.8472 48.6681L16.7215 49.0477C16.5274 48.9102 16.4775 48.8311 16.3226 48.66C15.4669 46.4555 14.51 44.9965 11.7221 44.4843L12.0843 44.765C11.9624 44.8765 12.03 44.8359 11.8878 44.8942C8.32444 44.3496 6.0245 46.4028 5.45013 49.3732C5.33094 49.758 5.33308 49.8611 5.01243 50.1335C5.09572 51.0742 5.22915 51.5134 5.6282 52.3919C5.55843 52.5704 5.54307 52.6747 5.37456 52.789C4.31297 52.6434 3.76808 52.66 2.75123 53.041C1.5438 53.7502 1.17923 54.2859 1.65862 55.5691L1.70825 55.6923C1.78137 55.8696 1.82103 55.9205 1.93238 56.0796C1.75981 56.0916 1.69666 56.0935 1.52418 56.0845C0.327129 55.0224 0.690385 53.7904 1.99951 52.9554C2.88344 52.3833 3.90538 52.2959 4.95742 52.2753C4.4648 50.4524 4.27331 49.1097 5.06979 47.3201Z" fill="#55210E"/>
<path d="M5.05076 48.9881C5.75287 45.92 8.07763 44.0818 11.7221 44.4843L12.0843 44.765C11.9624 44.8765 12.03 44.8359 11.8878 44.8942C8.32444 44.3496 6.0245 46.4028 5.45013 49.3732C5.33094 49.758 5.33308 49.8611 5.01243 50.1335L5.05076 48.9881Z" fill="#E3CEB4"/>
<path d="M16.3226 48.66C16.4775 48.8311 16.5274 48.9102 16.7215 49.0477L16.8472 48.6681C17.1994 52.4384 15.6396 54.934 11.2659 55.7639C11.2295 56.0572 11.1091 56.7385 11.2062 56.9829C11.1761 56.995 11.0478 56.9801 11.0054 56.9775C10.9011 56.7066 10.6501 56.4556 10.33 56.3806L10.2492 56.5703L10.142 56.8132L9.81631 56.8323L9.63916 57.0054C8.0518 56.6019 7.6859 56.5555 6.14786 56.9826C5.93227 57.0321 5.44606 57.1602 5.2505 57.1625C5.35738 56.852 5.76701 57.0382 6.07739 56.7488L5.77443 56.6814C5.84328 56.2437 5.89657 56.5344 6.02206 56.3735C6.16443 56.1911 6.1926 55.8822 6.46291 55.6416C6.84498 55.959 6.86756 55.9401 7.30373 55.7708C7.29671 55.5027 7.44081 55.3132 7.57871 55.0702C7.69434 54.8168 7.95295 54.8615 8.22641 54.8315C12.8389 56.7584 17.0777 52.8813 16.3226 48.66Z" fill="#60311E"/>
<path d="M5.77443 56.6814C5.84328 56.2437 5.89657 56.5344 6.02206 56.3735C6.16443 56.1911 6.1926 55.8822 6.46291 55.6416C6.84498 55.959 6.86756 55.9401 7.30373 55.7708C8.20434 56.32 8.46366 55.7786 9.57509 55.8093C9.38156 56.407 9.30845 56.3728 9.81631 56.8323L9.63916 57.0054C8.0518 56.6019 7.6859 56.5555 6.14786 56.9826C5.93227 57.0321 5.44606 57.1602 5.2505 57.1625C5.35738 56.852 5.76701 57.0382 6.07739 56.7488L5.77443 56.6814Z" fill="#562D1B"/>
<path d="M9.57509 55.8093C10.0953 55.7219 10.8005 55.7689 10.9307 56.3106L10.9344 56.2792L10.8264 56.3763C10.6114 56.284 10.5839 56.2604 10.3929 56.1297L10.0297 56.1492C9.91445 56.1646 9.96275 56.1692 9.84438 56.1367C9.69946 56.097 9.64556 55.925 9.57509 55.8093Z" fill="#BD8763"/>
<path d="M11.7221 44.4843C14.51 44.9965 15.4669 46.4555 16.3226 48.66C17.0777 52.8813 12.8389 56.7584 8.22641 54.8315C7.95295 54.8615 7.69434 54.8168 7.57871 55.0702C7.22461 54.8462 6.9425 54.9185 6.49982 54.9477C6.41887 54.7504 6.35643 54.4749 6.30091 54.2632C6.16199 53.8854 5.59626 53.3863 5.28345 53.0863L5.37456 52.789C5.54307 52.6747 5.55843 52.5704 5.6282 52.3919C5.22915 51.5134 5.09572 51.0742 5.01243 50.1335C5.33308 49.8611 5.33094 49.758 5.45013 49.3732C5.43406 50.3045 5.53341 51.1446 5.96135 52.0069C6.55749 53.2124 7.67654 54.1575 9.06885 54.6312C10.2738 55.0373 11.5073 54.9768 12.6719 54.5009C14.0156 53.9597 15.0562 52.9655 15.5594 51.7416C16.7863 48.7508 15.3306 45.9162 11.8878 44.8942C12.03 44.8359 11.9624 44.8765 12.0843 44.765L11.7221 44.4843Z" fill="#C8926F"/>
<path d="M5.6282 52.3919C6.06467 52.9666 6.60569 53.7101 7.20081 54.1422C7.55979 54.4028 7.8478 54.5344 8.22641 54.8315C7.95295 54.8615 7.69434 54.8168 7.57871 55.0702C7.22461 54.8462 6.9425 54.9185 6.49982 54.9477C6.41887 54.7504 6.35643 54.4749 6.30091 54.2632C6.16199 53.8854 5.59626 53.3863 5.28345 53.0863L5.37456 52.789C5.54307 52.6747 5.55843 52.5704 5.6282 52.3919Z" fill="#773E1E"/>
<path d="M10.3334 45.2174C16.5607 44.896 17.5572 53.5107 11.1506 54.3992C10.1205 54.453 9.08116 54.2838 8.20872 53.7924C4.96047 51.9631 5.22539 46.923 8.87319 45.5703C9.34862 45.394 9.83411 45.3083 10.3334 45.2174Z" fill="#DFDDE5"/>
<path d="M10.9095 45.9985C12.4745 45.9984 13.5501 46.8254 12.0343 47.9522C11.1631 48.0295 9.89645 47.3419 10.1563 46.4336C10.3443 46.1584 10.5638 46.1229 10.9095 45.9985Z" fill="#FEFEFE"/>
<path d="M8.86048 46.2493C9.37007 46.4115 9.61933 46.5115 9.71716 46.9945C9.51865 47.5623 9.15489 47.7082 8.5978 48.0369C8.22722 48.0816 8.16752 48.0436 7.88471 47.9024C7.51891 47.1894 8.21207 46.587 8.86048 46.2493Z" fill="#FEFEFE"/>
<path d="M7.04736 48.4895C7.80326 48.503 8.06878 48.7921 7.73065 49.4028C7.38193 49.6054 7.5301 49.5519 7.05132 49.5322C6.87275 49.2408 6.84203 49.2154 6.79759 48.8951L6.92603 48.7544L6.86562 48.9312C7.14803 48.6437 7.1519 48.8997 7.30118 48.6364L7.04736 48.4895Z" fill="#FEFEFE"/>
<path d="M10.2492 56.5703L10.33 56.3806C10.6501 56.4556 10.9011 56.7066 11.0054 56.9775C11.0478 56.9801 11.1761 56.995 11.2062 56.9829C13.8229 58.3419 14.6891 60.2819 15.2792 62.7474C14.9348 62.8047 14.8782 62.8171 14.5326 62.8026C14.5658 63.38 14.5542 64.2725 14.2554 64.8001C14.0469 65.596 13.3112 67.697 12.0937 67.5981C11.1808 68.0208 10.8125 68.3443 9.76455 68.5136C9.8156 68.2849 9.86289 68.1934 9.76648 67.9764C9.40628 67.8092 8.86831 67.9283 8.37783 67.8383C7.92396 67.7408 7.80468 67.7078 7.32671 67.7169C6.84203 67.5961 6.77603 67.3754 6.58332 67.0064C6.27345 66.7321 5.85315 66.5538 5.46508 66.3597C5.11321 66.464 5.23474 66.4775 4.9326 66.3875L4.86141 66.3788C4.76155 66.3661 4.17558 66.3036 4.10887 66.276C1.97266 65.3888 1.87412 62.2273 2.33368 60.5417C2.65127 59.4693 3.38958 58.3487 4.44111 57.7076C4.71283 57.5281 4.98264 57.3464 5.2505 57.1625C5.44606 57.1602 5.93227 57.0321 6.14786 56.9826C7.6859 56.5555 8.0518 56.6019 9.63916 57.0054L9.81631 56.8323L10.142 56.8132L10.2492 56.5703Z" fill="#FEFEFE"/>
<path d="M10.2492 56.5703L10.33 56.3806C10.6501 56.4556 10.9011 56.7066 11.0054 56.9775C11.0478 56.9801 11.1761 56.995 11.2062 56.9829C13.8229 58.3419 14.6891 60.2819 15.2792 62.7474C14.9348 62.8047 14.8782 62.8171 14.5326 62.8026C14.5658 63.38 14.5542 64.2725 14.2554 64.8001C14.0469 65.596 13.3112 67.697 12.0937 67.5981C11.1808 68.0208 10.8125 68.3443 9.76455 68.5136C9.8156 68.2849 9.86289 68.1934 9.76648 67.9764C9.40628 67.8092 8.86831 67.9283 8.37783 67.8383C7.92396 67.7408 7.80468 67.7078 7.32671 67.7169C6.84203 67.5961 6.77603 67.3754 6.58332 67.0064C7.85481 67.5855 10.3788 67.7308 11.4527 66.8318C13.6785 64.9686 13.6889 61.669 11.8759 59.6622C10.9639 58.6328 9.61414 57.9765 8.13936 57.8454C5.36552 57.6138 3.73758 59.7454 3.52565 61.9528C3.51711 62.5838 3.41806 63.2118 3.82972 63.72C4.47324 63.9626 4.50274 63.4856 5.16732 63.5562C5.37915 63.7885 5.36846 63.775 5.40935 64.0732L5.2864 64.1815C4.79714 64.1599 4.49795 63.9716 4.19978 64.0818C4.24646 64.3434 4.88551 65.4198 5.10711 65.5461C5.56199 65.2257 5.52457 64.892 5.99887 64.6924C6.34321 64.7557 6.32796 64.7455 6.59094 64.948C6.92705 65.4967 6.57844 65.811 6.11227 66.1235L5.89617 66.2699L5.47494 66.1247C5.42358 66.2934 5.40833 66.2182 5.46508 66.3597C5.11321 66.464 5.23474 66.4775 4.9326 66.3875L4.86141 66.3788C4.76155 66.3661 4.17558 66.3036 4.10887 66.276C1.97266 65.3888 1.87412 62.2273 2.33368 60.5417C2.65127 59.4693 3.38958 58.3487 4.44111 57.7076C4.71283 57.5281 4.98264 57.3464 5.2505 57.1625C5.44606 57.1602 5.93227 57.0321 6.14786 56.9826C7.6859 56.5555 8.0518 56.6019 9.63916 57.0054L9.81631 56.8323L10.142 56.8132L10.2492 56.5703Z" fill="#773E1E"/>
<path d="M10.2492 56.5703L10.33 56.3806C10.6501 56.4556 10.9011 56.7066 11.0054 56.9775C11.0478 56.9801 11.1761 56.995 11.2062 56.9829C13.8229 58.3419 14.6891 60.2819 15.2792 62.7474C14.9348 62.8047 14.8782 62.8171 14.5326 62.8026C14.5658 63.38 14.5542 64.2725 14.2554 64.8001L14.1481 64.7135L14.2119 64.5531L14.1131 64.4756L14.0706 64.5268L14.1467 64.416L14.0583 64.3936L13.9739 64.4964L14.08 64.4953C13.9947 64.5973 13.9046 64.6796 13.8011 64.767C14.5027 61.1795 13.0321 58.1909 8.70315 57.4738C8.13214 57.1104 6.75803 57.1293 6.14684 57.4175L6.02287 57.3015L6.14786 56.9826C7.6859 56.5555 8.0518 56.6019 9.63916 57.0054L9.81631 56.8323L10.142 56.8132L10.2492 56.5703Z" fill="#E6B693"/>
<path d="M10.2492 56.5703L10.33 56.3806C10.6501 56.4556 10.9011 56.7066 11.0054 56.9775C11.0478 56.9801 11.1761 56.995 11.2062 56.9829C13.8229 58.3419 14.6891 60.2819 15.2792 62.7474C14.9348 62.8047 14.8782 62.8171 14.5326 62.8026C14.3145 60.0648 12.4465 58.0533 9.63916 57.0054L9.81631 56.8323L10.142 56.8132L10.2492 56.5703Z" fill="#55210E"/>
<path d="M5.2505 57.1625C5.44606 57.1602 5.93227 57.0321 6.14786 56.9826L6.02287 57.3015L6.14684 57.4175C6.75803 57.1293 8.13214 57.1104 8.70315 57.4738C7.78281 57.4537 6.93173 57.4112 6.07586 57.7718C2.50371 59.277 2.1311 63.7271 4.7763 66.0793C4.84585 66.141 4.91602 66.202 4.9869 66.2625L4.9326 66.3875L4.86141 66.3788C4.76155 66.3661 4.17558 66.3036 4.10887 66.276C1.97266 65.3888 1.87412 62.2273 2.33368 60.5417C2.65127 59.4693 3.38958 58.3487 4.44111 57.7076C4.71283 57.5281 4.98264 57.3464 5.2505 57.1625Z" fill="#DCB189"/>
<path d="M4.44111 57.7076L4.91511 57.9456C3.68764 58.805 3.36761 59.407 2.63968 60.6472C2.42754 60.6117 2.49415 60.647 2.33368 60.5417C2.65127 59.4693 3.38958 58.3487 4.44111 57.7076Z" fill="#E3CEB4"/>
<path d="M5.2505 57.1625C5.44606 57.1602 5.93227 57.0321 6.14786 56.9826L6.02287 57.3015L6.14684 57.4175C6.00152 57.5134 5.40965 57.6218 4.91511 57.9456L4.44111 57.7076C4.71283 57.5281 4.98264 57.3464 5.2505 57.1625Z" fill="#E3CEB4"/>
<path d="M13.8011 64.767C13.9046 64.6796 13.9947 64.5973 14.08 64.4953L13.9739 64.4964L14.0583 64.3936L14.1467 64.416L14.0706 64.5268L14.1131 64.4756L14.2119 64.5531L14.1481 64.7135L14.2554 64.8001C14.0469 65.596 13.3112 67.697 12.0937 67.5981C11.8163 67.4267 11.7872 67.4693 11.6875 67.2414C12.6817 66.5978 13.2079 65.6892 13.8011 64.767Z" fill="#BD8763"/>
<path d="M11.6875 67.2414C11.7872 67.4693 11.8163 67.4267 12.0937 67.5981C11.1808 68.0208 10.8125 68.3443 9.76455 68.5136C9.8156 68.2849 9.86289 68.1934 9.76648 67.9764C9.40628 67.8092 8.86831 67.9283 8.37783 67.8383C10.0233 67.6299 9.88984 68.0746 11.6875 67.2414Z" fill="#B16C37"/>
<path d="M3.52565 61.9528C3.73758 59.7454 5.36552 57.6138 8.13936 57.8454C9.61414 57.9765 10.9639 58.6328 11.8759 59.6622C13.6889 61.669 13.6785 64.9686 11.4527 66.8318C10.3788 67.7308 7.85481 67.5855 6.58332 67.0064C6.27345 66.7321 5.85315 66.5538 5.46508 66.3597C5.40833 66.2182 5.42358 66.2934 5.47494 66.1247L5.89617 66.2699L6.11227 66.1235C6.33874 66.376 7.43939 66.9137 7.7757 66.7335L7.85248 67.0252C8.03004 67.1033 7.95214 67.108 8.09776 67.0751C8.32587 67.0654 8.3097 67.0457 8.51187 66.9481C8.76926 66.9609 8.81136 66.969 9.07414 66.9336C9.90347 66.4124 9.17451 66.2063 9.58109 65.7002C9.87764 65.7825 10.4278 66.1404 10.5693 66.3794C10.3748 66.4805 10.2825 66.5351 10.1021 66.6547L10.0804 66.9081C10.459 66.9225 10.4719 66.9207 10.822 66.803C10.9666 66.5775 10.8937 66.5866 10.8012 66.242L10.9619 66.1386C11.0886 66.2411 11.1168 66.2703 11.2136 66.3905L11.2981 66.4963C11.5564 66.3541 11.4691 66.4487 11.5837 66.214L11.3065 65.8866L11.3932 65.8154L11.8138 65.856L11.9057 65.7345C11.8623 65.4812 11.9082 65.4651 11.7482 65.2982C11.5156 65.4609 11.5585 65.4877 11.3154 65.4975C11.2023 65.1306 11.1894 65.0717 11.2042 64.6928C11.72 64.8323 11.7438 65.0433 12.2636 65.0242C12.6412 64.8012 12.8623 64.1967 12.6535 63.8732C12.2086 63.8732 11.8717 63.9367 11.6313 63.583C11.6673 63.2144 11.762 63.0975 11.9432 62.7716C11.9454 62.4618 11.9913 62.5999 11.8059 62.341C11.7746 61.9102 11.6543 61.5509 11.5379 61.1328C11.7457 60.9693 12.0263 60.9761 12.3433 60.9271L12.3485 60.8265C12.0447 60.4348 11.651 59.9538 11.149 59.7597C10.8514 59.8942 10.9509 59.7977 10.8045 60.0251C10.9624 60.1627 10.9728 60.1563 11.0637 60.3314C10.7731 60.6016 10.9231 60.5393 10.5034 60.5656L10.6894 60.5953L10.4865 60.5525L10.3937 60.3331C10.4266 59.9127 10.677 59.7007 10.9709 59.3539C10.5763 59.0656 10.4977 59.0255 10.0182 58.9069L9.90377 58.8793C9.8335 58.699 9.80991 58.682 9.68879 58.5211C9.34557 58.4133 9.3659 58.3588 9.10872 58.4447C9.19089 58.8813 9.37048 59.154 9.29187 59.569L9.13892 59.6157C8.92343 59.4554 8.77922 58.9 8.64448 58.5946C8.39217 58.4431 8.37631 58.4654 8.07682 58.4733C7.69343 58.7026 7.72332 58.7412 7.62448 59.1831L7.37227 59.0873C7.05508 58.8471 7.20112 58.8886 6.82616 58.8814C6.51447 59.0286 6.49434 59.0323 6.27193 59.267L6.27579 59.0873C5.98311 59.0523 5.70203 58.9591 5.4183 58.8889C5.23596 59.1737 4.83721 59.5014 4.8122 59.7608L4.8965 59.8148L5.11484 59.6545C5.52101 59.7822 5.86779 60.1871 6.06203 60.5138C5.8743 60.781 5.96634 60.7322 5.68454 60.8548C5.0102 60.6186 4.97887 59.983 4.57474 59.821L4.43714 60.046C4.50029 60.1917 4.54768 60.2873 4.62457 60.4278L4.55715 60.5337L4.09728 60.5059C3.66548 60.9815 4.24301 61.3014 3.9969 61.8184C3.76911 61.9145 3.77257 61.9221 3.52565 61.9528Z" fill="#BEACA1"/>
<path d="M11.8059 62.341C12.0792 62.1727 12.5547 61.8236 12.8512 61.8184L12.971 61.9895C12.6534 62.63 12.8149 62.6407 12.8772 63.3112C12.5503 63.3921 12.1706 62.9759 11.9432 62.7716C11.9454 62.4618 11.9913 62.5999 11.8059 62.341Z" fill="#FEFEFE"/>
<path d="M6.27193 59.267C6.49434 59.0323 6.51447 59.0286 6.82616 58.8814C7.20112 58.8886 7.05508 58.8471 7.37227 59.0873C7.14742 59.3175 6.91708 59.5434 6.68145 59.7651C6.57742 59.6572 6.37444 59.3928 6.27193 59.267Z" fill="#BD8763"/>
<path d="M6.68145 59.7651C6.91708 59.5434 7.14742 59.3175 7.37227 59.0873L7.62448 59.1831C7.7937 59.513 7.80864 59.4104 7.73125 59.6993C7.404 59.8952 7.06769 59.8237 6.68145 59.7651Z" fill="#9A7265"/>
<path d="M7.7757 66.7335C7.812 66.3528 7.64065 65.7788 7.66495 65.6842C7.95712 65.6554 7.82868 65.6236 8.06156 65.7862C8.20373 66.2762 8.06654 66.5837 8.09776 67.0751C7.95214 67.108 8.03004 67.1033 7.85248 67.0252L7.7757 66.7335Z" fill="#9A7265"/>
<path d="M7.94451 59.6543C8.30603 59.9191 8.42797 60.29 8.61946 60.6825C7.98346 63.6767 11.424 63.5297 11.0184 64.7799C10.2458 64.8216 9.98289 63.798 9.1797 63.3825C8.6999 63.1341 8.60532 63.1223 8.07508 62.9771C8.09888 62.5423 8.20119 61.9325 8.2619 61.486C7.74153 60.6419 7.73542 60.6017 7.94451 59.6543Z" fill="#754A34"/>
<path d="M4.48301 61.4491C5.01833 61.5191 5.07985 61.5311 5.34436 61.912C5.33196 62.2352 5.39674 62.1058 5.20311 62.3316L5.00419 62.2921L4.90768 62.0355C4.64094 62.0362 4.58348 62.1313 4.34043 62.0454C4.29232 61.7983 4.37724 61.6831 4.48301 61.4491Z" fill="#9A7265"/>
<path d="M6.72366 74.558C6.72386 74.2202 6.67118 73.9918 6.89755 73.7382C7.33535 73.7328 7.88755 74.2919 7.92101 74.6521C7.97552 74.661 8.06075 74.6817 8.10621 74.6718C8.52784 75.8535 8.30949 76.2872 9.20543 77.0944C9.14278 78.1104 9.66123 78.7161 10.0518 79.6281C10.1555 79.87 10.4441 80.0241 10.672 80.1657C11.4216 82.7433 17.1447 85.1283 19.0615 82.9207C20.7675 82.591 20.0447 81.782 21.2189 81.6959C22.5639 81.9988 22.4265 81.506 23.0869 80.714L23.2671 80.7552C23.1655 81.101 23.0397 81.3913 22.9021 81.7255C21.9746 82.2039 21.9583 82.3392 21.3899 83.1742C20.0507 83.6159 20.4004 84.1849 18.8349 84.278L18.7159 84.373C17.6998 85.1677 17.0146 84.717 15.6366 85.0468C14.3771 84.5656 13.6644 84.8729 12.9852 84.0101C12.8557 83.9752 12.7271 83.9376 12.5996 83.8982L12.4577 83.8525C11.6215 83.5909 10.0886 81.8554 9.52018 81.1781C9.28475 80.8968 9.36235 80.352 9.21855 80.1442C8.64641 79.3172 7.8958 78.3935 7.74784 77.4125C7.71946 77.1088 7.76339 76.7871 7.47864 76.5676C6.53176 75.8383 7.60322 75.3859 6.72366 74.558Z" fill="#754A34"/>
<path d="M17.5389 83.7467L17.7698 83.8363C17.8437 84.0756 17.7867 84.0057 17.9525 84.1795L18.4332 83.9734L18.4599 84.029L18.2478 84.1553L18.3433 84.3193L18.2056 84.4715C17.8126 84.5817 17.2868 84.7215 17.03 84.3632C17.1478 84.0066 17.2202 84.0272 17.5389 83.7467Z" fill="#BD8763"/>
<path d="M9.61149 79.9964L9.97017 80.1128C10.4225 80.5447 10.4493 80.7633 10.5754 81.3465C9.70536 80.946 9.50004 80.9183 9.61149 79.9964Z" fill="#9A7265"/>
<path d="M12.3269 82.6232C12.8062 82.7003 12.9778 82.9682 12.9675 83.3669L12.788 83.5111C12.4611 83.5505 12.3248 83.4412 12.0156 83.2952C11.8727 83.0712 11.8597 83.0802 11.8734 82.8114L12.0006 82.7863L12.5987 83.1805L12.6425 83.1357L12.3269 82.6232Z" fill="#BD8763"/>
<path d="M10.7595 81.3842C11.0218 81.7461 11.1851 81.8877 11.5171 82.203L11.4559 82.4566C10.8594 82.2765 10.6037 81.9101 10.7595 81.3842Z" fill="#C6926B"/>
<path d="M0.659264 62.0747C0.832451 61.6563 0.899774 60.8511 1.29984 60.6128L1.17771 60.6098L1.29008 60.5191L1.22093 60.5231L1.291 60.4827C1.54778 61.1895 1.40174 61.2498 1.57025 61.9107L1.59069 61.9877L1.633 62.6238C1.69239 63.5788 2.21144 65.278 2.76212 66.0689C2.82355 66.1571 2.81459 66.1999 2.79781 66.2984L2.44188 66.1976C2.30296 66.3696 2.30866 66.4608 2.27449 66.6679L2.12805 66.6307L2.28893 66.6361C1.21422 66.2678 0.2895 63.0139 0.659264 62.0747Z" fill="#F8D198"/>
<path d="M2.89788 57.79L3.31514 57.7247C3.42273 57.8724 3.39944 57.8151 3.44612 57.9837C2.3169 59.241 2.20106 59.5727 1.69096 61.1029C1.42442 60.2721 1.95618 59.9582 1.55937 59.3598C1.95038 58.6463 2.28619 58.3692 2.89788 57.79Z" fill="#D9AB85"/>
<path d="M7.32671 67.7169C7.80468 67.7078 7.92396 67.7408 8.37783 67.8383C8.86831 67.9283 9.40628 67.8092 9.76648 67.9764C9.86289 68.1934 9.8156 68.2849 9.76455 68.5136C9.30916 68.5861 8.72827 68.727 8.26922 68.8274C7.94898 68.426 7.67878 68.0962 7.32671 67.7169Z" fill="#BD8763"/>
<path d="M1.55937 59.3598C1.95618 59.9582 1.42442 60.2721 1.69096 61.1029C1.66259 61.3908 1.6395 61.7042 1.59069 61.9877L1.57025 61.9107C1.40174 61.2498 1.54778 61.1895 1.291 60.4827L1.22093 60.5231L1.29008 60.5191L1.17771 60.6098L1.29984 60.6128C0.899774 60.8511 0.832451 61.6563 0.659264 62.0747C0.681738 60.9649 0.919499 60.3135 1.55937 59.3598Z" fill="#E3CEB4"/>
<path d="M23.7917 57.8418C24.2359 56.6354 24.8108 55.1825 25.0674 53.9572C25.2832 52.9273 25.1549 51.838 25.5366 50.7783C25.9968 49.5387 26.694 48.3775 27.5979 47.3446C27.9949 46.8896 28.6218 46.2149 28.9293 45.7327C29.2608 45.2127 29.4573 43.8674 29.8035 43.3615C31.3002 41.1744 33.4632 39.465 35.7354 37.9248C36.6401 37.3116 37.1778 36.6456 38.2759 36.0788C39.2865 35.5571 40.0834 35.5879 41.054 35.2331C41.5696 35.0446 42.544 34.4596 43.1026 34.2052C43.8497 33.865 44.3189 33.7205 45.1029 33.4773C45.5571 33.7153 46.0483 34.0305 46.4876 34.2994C48.3822 35.4258 53.3703 37.2747 55.6544 37.7354C57.846 38.2065 59.9927 38.8143 62.2067 39.2003C62.5972 39.2684 62.9877 39.341 63.3731 39.4297C67.4012 40.1068 70.6687 40.5769 74.8128 40.5171C75.9996 40.4804 76.7552 40.4822 77.9125 40.2114C79.7603 41.6702 81.5389 43.0023 82.3657 45.1511C82.5782 45.7036 82.7633 46.9184 83.041 47.2602C84.6803 49.2822 86.0237 50.0521 86.0247 52.7822C86.0257 54.9314 86.105 57.3396 86.3755 59.5003C86.4203 59.8456 86.5799 60.6825 86.5301 61.0264C86.2118 63.1921 85.926 65.3471 85.4247 67.4863C85.2671 68.1586 85.6789 69.4119 85.5335 70.1409C85.6159 70.8458 84.8633 71.9257 84.8155 72.5305C84.5643 75.7335 83.7081 78.2305 81.1362 80.6217C77.2921 84.1965 73.0199 84.8568 67.749 84.6185C68.9958 83.5837 69.1514 83.426 69.8613 82.0498C70.3819 80.929 70.6036 79.7186 70.5101 78.51C70.385 76.9493 69.5836 75.0992 68.2209 74.0536C69.8094 73.7006 71.643 72.8781 72.5674 71.6331C72.7819 71.3448 73.0311 70.8444 72.8999 70.499L72.7331 70.4522C72.2419 70.6945 71.4863 71.4257 70.9972 71.7472C67.7663 73.8735 64.4531 73.5169 60.8775 72.5341C59.8799 72.2608 58.0341 72.8629 57.1249 73.0815C57.0253 73.1057 56.5422 72.5878 56.7975 72.3406C58.6077 70.5844 59.1151 68.3339 58.21 65.8612C57.4544 63.84 55.9219 62.1142 53.8768 60.9813C52.0422 59.9572 51.3731 60.0063 50.2036 58.1226C50.2585 57.5542 50.4161 57.0876 49.9524 56.6464C49.1846 56.657 49.1714 57.7721 49.0717 58.2646C48.549 58.6988 48.1066 59.0032 47.8137 59.5841C45.6395 59.9249 43.8149 61.4725 42.5031 62.9359C41.475 64.2011 41.3136 66.1738 41.6471 67.6271C42.6815 72.1342 47.9785 75.6125 53.2158 74.4863C55.0382 74.0939 54.2958 74.9227 55.2578 75.8912C54.5398 77.1992 54.3049 78.0746 54.8551 79.483C56.049 82.5408 59.4029 83.6921 62.4833 84.7323L63.0395 85.3585L63.5521 85.458L63.5989 85.6237L63.5622 85.613C63.7077 86.0009 64.27 86.4489 64.7266 86.2894C65.5758 85.9938 65.9612 85.1229 67.0178 85.5082C71.3185 86.2751 75.8236 85.2994 79.4989 83.2522C78.6314 84.8075 77.4864 86.1452 75.6874 86.8673C73.6941 87.6665 72.7219 89.0355 71.0135 90.0891C69.6833 90.8748 67.2568 91.8738 65.5962 91.8173C62.8026 91.7233 61.9697 92.7769 59.65 93.6361C54.0822 95.6994 47.3032 94.5428 42.0029 92.3522C40.4614 91.7152 38.5927 91.4805 37.1999 90.3964C36.0832 89.573 35.2589 88.7076 34.2072 87.8448C31.997 86.4426 30.504 85.9651 28.8596 83.8328C28.0237 83.28 26.9062 80.7964 26.6839 79.8575C26.4522 78.8782 26.4966 78.2546 25.9439 77.3076C25.0194 76.4449 24.1946 74.4729 23.7447 73.3198C24.177 73.1836 24.4465 73.069 24.8518 72.8951C25.6705 72.3916 26.4298 71.9169 26.7244 71.0383C27.3015 69.3173 25.9879 68.312 24.2664 67.9191C22.9259 67.7521 23.5359 66.6766 23.7738 65.7994L23.7689 65.7372C23.8476 65.3454 23.8533 64.5663 23.8717 64.134C23.4239 61.3928 23.2531 60.607 23.7917 57.8418Z" fill="#F6C062"/>
<path d="M74.8128 40.5171C75.9996 40.4804 76.7552 40.4822 77.9125 40.2114C79.7603 41.6702 81.5389 43.0023 82.3657 45.1511C82.5782 45.7036 82.7633 46.9184 83.041 47.2602C84.6803 49.2822 86.0237 50.0521 86.0247 52.7822C86.0257 54.9314 86.105 57.3396 86.3755 59.5003C86.4203 59.8456 86.5799 60.6825 86.5301 61.0264C86.2118 63.1921 85.926 65.3471 85.4247 67.4863C85.2671 68.1586 85.6789 69.4119 85.5335 70.1409C85.6159 70.8458 84.8633 71.9257 84.8155 72.5305C84.5643 75.7335 83.7081 78.2305 81.1362 80.6217C77.2921 84.1965 73.0199 84.8568 67.749 84.6185C68.9958 83.5837 69.1514 83.426 69.8613 82.0498C71.4467 82.0516 74.1477 81.0392 75.5318 80.3888C77.1823 79.6129 77.825 78.605 78.8592 77.3372C79.4308 76.6357 80.945 75.8939 81.1098 74.9244C81.2552 74.0688 81.1352 71.6192 80.6206 70.9238C79.7236 70.1712 79.3972 69.0412 79.9331 68.0134C80.3237 67.2624 80.7762 67.1061 81.5969 66.8432C82.3026 66.269 81.904 65.0288 82.0128 64.3127C82.2233 62.9195 81.5959 61.7178 81.5999 60.3779C81.603 59.4107 82.1013 58.3201 82.1155 57.3312C83.8525 56.0476 83.8067 53.9735 83.1233 52.1835C82.7013 51.0793 81.8216 50.3911 80.6298 49.917L80.7386 49.8117C81.0559 48.4339 78.8969 46.2288 77.9806 45.2994C77.7253 45.0397 77.1711 43.5056 76.867 43.1054C76.1521 42.1637 75.4555 41.5249 74.8128 40.5171Z" fill="#EBA449"/>
<path d="M81.5969 66.8432C85.0769 67.6674 83.5667 71.8385 80.6206 70.9238C79.7236 70.1712 79.3972 69.0412 79.9331 68.0134C80.3237 67.2624 80.7762 67.1061 81.5969 66.8432Z" fill="#9A5526"/>
<path d="M67.0178 85.5082C71.3185 86.2751 75.8236 85.2994 79.4989 83.2522C78.6314 84.8075 77.4864 86.1452 75.6874 86.8673C73.6941 87.6665 72.7219 89.0355 71.0135 90.0891C69.6833 90.8748 67.2568 91.8738 65.5962 91.8173C62.8026 91.7233 61.9697 92.7769 59.65 93.6361C54.0822 95.6994 47.3032 94.5428 42.0029 92.3522C40.4614 91.7152 38.5927 91.4805 37.1999 90.3964C36.0832 89.573 35.2589 88.7076 34.2072 87.8448C31.997 86.4426 30.504 85.9651 28.8596 83.8328C32.066 84.5997 33.9393 85.7993 36.7317 87.4066C38.5309 88.4432 42.2068 88.6126 44.3612 89.1824C44.6226 89.2514 48.3903 89.7952 48.4778 89.7943C49.4815 90.2871 50.0571 90.4833 51.2236 90.322C51.5002 90.5075 52.2181 90.4743 52.5771 90.4672C56.35 90.3847 60.2836 88.7891 63.6721 87.4111C63.1585 86.5331 63.7341 86.4569 63.0395 85.3585L63.5521 85.458L63.5989 85.6237L63.5622 85.613C63.7077 86.0009 64.27 86.4489 64.7266 86.2894C65.5758 85.9938 65.9612 85.1229 67.0178 85.5082Z" fill="#E49A44"/>
<path d="M63.0395 85.3585L63.5521 85.458L63.5989 85.6237L63.5622 85.613C63.7077 86.0009 64.27 86.4489 64.7266 86.2894C65.5758 85.9938 65.9612 85.1229 67.0178 85.5082C67.5619 87.5939 65.5433 88.067 63.6721 87.4111C63.1585 86.5331 63.7341 86.4569 63.0395 85.3585Z" fill="#773E1E"/>
<path d="M82.1155 57.3312C80.9409 57.862 80.1559 57.8603 78.8043 57.61C74.6714 56.8445 73.3779 52.1236 76.9769 50.0556C77.9725 49.4841 79.4745 49.6231 80.6298 49.917C81.8216 50.3911 82.7013 51.0793 83.1233 52.1835C83.8067 53.9735 83.8525 56.0476 82.1155 57.3312Z" fill="#8C4A20"/>
<path d="M23.7917 57.8418C24.2359 56.6354 24.8108 55.1825 25.0674 53.9572C25.2832 52.9273 25.1549 51.838 25.5366 50.7783C25.9968 49.5387 26.694 48.3775 27.5979 47.3446C27.9949 46.8896 28.6218 46.2149 28.9293 45.7327C29.2608 45.2127 29.4573 43.8674 29.8035 43.3615C31.3002 41.1744 33.4632 39.465 35.7354 37.9248C36.6401 37.3116 37.1778 36.6456 38.2759 36.0788C39.2865 35.5571 40.0834 35.5879 41.054 35.2331C41.5696 35.0446 42.544 34.4596 43.1026 34.2052C43.8497 33.865 44.3189 33.7205 45.1029 33.4773C45.5571 33.7153 46.0483 34.0305 46.4876 34.2994C45.9761 34.6902 44.7562 35.1115 44.1175 35.3862C43.1006 35.8235 42.0082 36.2196 40.9592 36.5851C39.581 37.0656 38.4426 37.8631 37.2686 38.6366C34.7714 40.1006 33.0942 41.5168 31.4678 43.7362C31.0004 44.374 30.6452 45.1939 30.1029 45.9928C29.4919 46.8925 28.3015 48.1206 27.8466 49.0673C27.8305 49.1008 27.8541 49.2953 27.8546 49.301C27.0518 50.5016 26.5513 50.6379 26.7522 52.1445C26.4963 53.2929 26.4049 54.1763 26.2419 55.3242C26.1283 56.1239 25.4415 57.1779 25.2214 58.0164C24.7163 57.8789 24.3169 57.8739 23.7917 57.8418Z" fill="#F8D198"/>
<path d="M23.7917 57.8418C24.3169 57.8739 24.7163 57.8789 25.2214 58.0164L25.2762 58.0684C29.6649 59.4873 29.5232 65.5847 23.7689 65.7372C23.8476 65.3454 23.8533 64.5663 23.8717 64.134C23.4239 61.3928 23.2531 60.607 23.7917 57.8418Z" fill="#8C4A20"/>
<path d="M23.7917 57.8418C24.3169 57.8739 24.7163 57.8789 25.2214 58.0164L25.2762 58.0684C24.6801 60.0197 24.4947 61.651 24.4165 63.6619C24.4083 63.8725 24.2899 63.9413 24.1398 64.0767L23.8717 64.134C23.4239 61.3928 23.2531 60.607 23.7917 57.8418Z" fill="#B16C37"/>
<path d="M49.2598 85.3379C53.9053 84.3425 55.1063 88.9736 51.3242 90.2862L51.2236 90.322C50.0571 90.4833 49.4815 90.2871 48.4778 89.7943C47.2849 88.652 46.9707 87.3538 48.1341 86.0574C48.4737 85.6766 48.7869 85.5485 49.2598 85.3379Z" fill="#8A4A23"/>
<path d="M48.1341 86.0574C48.4737 85.6766 48.7869 85.5485 49.2598 85.3379C50.231 86.4695 49.3585 87.4676 48.432 86.7007C48.3547 86.4435 48.3202 86.2733 48.1341 86.0574Z" fill="#B16C37"/>
<path d="M27.8546 49.301C28.5599 48.6798 29.5187 48.5022 30.2457 49.2025C31.5612 50.4699 30.8995 53.5925 28.488 53.2974C27.6672 53.1969 27.0934 52.8107 26.7522 52.1445C26.5513 50.6379 27.0518 50.5016 27.8546 49.301Z" fill="#945022"/>
<path d="M55.6544 37.7354C57.846 38.2065 59.9927 38.8143 62.2067 39.2003C62.5972 39.2684 62.9877 39.341 63.3731 39.4297L63.3223 39.4965C62.5626 40.4657 61.7592 40.8453 60.4199 40.9512C59.2138 41.0524 58.0117 40.7229 57.0843 40.0366C56.2422 39.4142 55.7561 38.7023 55.6544 37.7354Z" fill="#8C4A20"/>
<path d="M23.7447 73.3198C24.177 73.1836 24.4465 73.069 24.8518 72.8951C25.2534 73.2114 26.4164 76.8185 25.9439 77.3076C25.0194 76.4449 24.1946 74.4729 23.7447 73.3198Z" fill="#F8D198"/>
<path d="M23.7738 65.7994C24.6812 66.0858 24.4332 67.2477 24.2664 67.9191C22.9259 67.7521 23.5359 66.6766 23.7738 65.7994Z" fill="#F8D198"/>
<path d="M40.6553 44.6458C39.0509 44.4284 37.8004 43.8194 37.4585 42.3041C37.2374 41.319 37.4775 40.2971 38.1245 39.4703C39.5934 37.5872 42.0349 37.4157 44.0866 38.6847C45.3925 38.7593 46.5273 39.5095 46.7266 40.6938C47.1263 43.0724 44.8539 44.7179 42.3131 44.7568C42.0908 44.7592 40.8272 44.6995 40.6553 44.6458Z" fill="#8C4A20"/>
<path d="M44.0866 38.6847C45.3925 38.7593 46.5273 39.5095 46.7266 40.6938C47.1263 43.0724 44.8539 44.7179 42.3131 44.7568C42.0908 44.7592 40.8272 44.6995 40.6553 44.6458C44.2011 44.2423 46.6951 41.4094 44.0866 38.6847Z" fill="#EBA449"/>
<path d="M60.1595 51.8419C62.0806 51.7428 63.4524 52.8387 63.97 54.4126C64.3392 55.5479 64.1806 56.7659 63.5297 57.7983C62.8931 58.7867 62.1741 59.1184 60.9812 59.3991C56.3561 59.6855 54.9395 53.1693 60.1595 51.8419Z" fill="#55210E"/>
<path d="M59.3104 53.1727C60.7829 53.0601 61.5202 54.6954 59.9714 55.6168C58.03 55.7079 57.786 54.1332 59.3104 53.1727Z" fill="#FEFEFE"/>
<path d="M61.4429 56.5168C61.7256 56.4382 62.0358 56.5034 62.2483 56.6864C62.4599 56.8694 62.5412 57.1406 62.4589 57.392C62.3755 57.6434 62.1426 57.8344 61.8517 57.8887C61.4307 57.9675 61.0148 57.7413 60.905 57.3747C60.7951 57.0082 61.0321 56.6306 61.4429 56.5168Z" fill="#FEFEFE"/>
<path d="M36.7658 76.7737C37.9603 76.7853 39.5154 76.9896 40.2671 77.9231C42.7326 80.4049 41.5406 83.6697 37.5083 83.4771C36.283 83.4179 35.5175 82.9735 34.5378 82.3509C33.018 81.1127 33.4173 79.0646 34.6952 77.8094C35.3423 77.1965 35.8378 76.9323 36.7658 76.7737Z" fill="#8C4A20"/>
<path d="M34.5378 82.3509C34.5834 82.2944 34.8087 81.9997 34.807 81.9997C36.3662 81.8823 37.3059 82.0391 38.6404 81.2292C40.1387 80.3189 39.6189 78.4607 40.2671 77.9231C42.7326 80.4049 41.5406 83.6697 37.5083 83.4771C36.283 83.4179 35.5175 82.9735 34.5378 82.3509Z" fill="#773E1E"/>
<path d="M34.6952 77.8094C35.3423 77.1965 35.8378 76.9323 36.7658 76.7737C36.6506 77.485 36.995 78.0898 36.3565 78.5879C36.0038 78.8639 35.1479 78.6381 34.9196 78.303C34.8241 78.1686 34.7791 77.9482 34.6952 77.8094Z" fill="#B16C37"/>
<path d="M40.5818 50.6727C45.8937 50.4093 46.1418 56.8971 41.8956 57.9979C39.9979 58.1492 38.6785 57.5509 37.9786 55.9482C37.5118 54.8679 37.5571 53.6676 38.1045 52.6171C38.6798 51.5013 39.3272 51.08 40.5818 50.6727Z" fill="#55210E"/>
<path d="M40.1741 51.8983C41.9326 52.1263 42.2816 53.769 40.6133 54.3631C38.7658 54.38 38.5501 52.79 40.1741 51.8983Z" fill="#FEFEFE"/>
<path d="M42.0162 55.2887C42.3995 55.1743 42.8179 55.3397 42.9759 55.6679C43.1339 55.9961 42.9779 56.376 42.6181 56.5392C42.3604 56.6562 42.05 56.6362 41.8142 56.4876C41.5785 56.3389 41.457 56.0865 41.4996 55.8338C41.5421 55.5811 41.7416 55.3707 42.0162 55.2887Z" fill="#FEFEFE"/>
<path d="M70.325 42.3556C71.3165 42.3651 72.0579 42.5159 72.8053 43.1768C73.8233 44.0761 74.3226 46.0372 73.1511 46.9825C72.5267 47.4857 71.8362 47.4691 71.044 47.4491C67.6819 46.7539 65.6287 42.9788 70.325 42.3556Z" fill="#8C4A20"/>
<path d="M63.5541 59.7276C65.5209 59.6522 66.7789 60.0178 67.325 61.8292C66.9904 63.0791 66.7982 63.3347 65.4426 63.7811C64.3473 63.9653 63.0222 63.732 62.3073 62.9066C61.7256 62.2334 61.8019 61.7866 61.9209 61.0081C62.4416 60.4657 62.8687 60.0983 63.5541 59.7276Z" fill="#EBA449"/>
<path d="M36.1409 57.7625C37.9518 57.5917 40.6499 58.2727 39.7533 60.5556C39.6214 60.8916 38.7179 61.5916 38.3102 61.6894C34.7252 62.0092 32.7253 59.0571 36.1409 57.7625Z" fill="#EBA449"/>
<path d="M28.7835 73.2571C28.2839 72.7948 27.9645 72.1653 27.9981 71.5203C28.0232 71.026 28.2679 70.5603 28.6793 70.2235C29.3465 69.6873 29.8884 69.7025 30.6984 69.751C31.5344 70.0859 32.086 70.3241 32.4382 71.1578C32.6596 71.6821 32.628 72.2635 32.3506 72.767C32.0806 73.2526 31.5981 73.62 31.0139 73.7857C30.1737 74.0187 29.4064 73.7588 28.7835 73.2571Z" fill="#773E1E"/>
<path d="M28.7835 73.2571C28.2839 72.7948 27.9645 72.1653 27.9981 71.5203C28.0232 71.026 28.2679 70.5603 28.6793 70.2235C29.3465 69.6873 29.8884 69.7025 30.6984 69.751C29.9393 70.0431 29.3343 72.4463 28.7835 73.2571Z" fill="#B16C37"/>
<path d="M36.2349 68.5365C36.961 67.4779 37.5656 67.302 38.7925 67.8575C39.179 68.3746 39.2649 68.5461 39.2408 69.1934C39.3572 71.6715 34.7069 70.9132 36.2349 68.5365Z" fill="#773E1E"/>
<path d="M36.2349 68.5365C36.961 67.4779 37.5656 67.302 38.7925 67.8575C38.2757 68.215 38.2463 68.7044 37.7608 69.0561C37.3133 69.3802 36.6969 68.9675 36.3728 69.3797C36.2719 69.1636 36.2589 68.7816 36.2349 68.5365Z" fill="#8C4A20"/>
<path d="M39.2408 69.1934C39.3572 71.6715 34.7069 70.9132 36.2349 68.5365C36.2589 68.7816 36.2719 69.1636 36.3728 69.3797C37.1085 70.627 38.6196 70.5499 39.2408 69.1934Z" fill="#EBA449"/>
<path d="M60.8633 49.7844C61.3189 49.7551 61.3199 49.6932 61.6992 49.8593C61.9026 50.1812 61.87 50.0394 61.868 50.404C61.4622 51.1082 58.6992 51.5872 57.6131 51.9019C57.2277 51.9377 57.1463 51.9739 56.8229 51.8229C56.5717 51.5264 56.5951 51.6411 56.5819 51.3212C57.0314 50.5932 59.8005 50.0824 60.8633 49.7844Z" fill="#55210E"/>
<path d="M40.3228 48.383C40.4904 48.4207 40.6559 48.4658 40.8186 48.5178C41.4991 48.7362 44.5392 49.955 44.8344 50.5204C44.8263 50.8452 44.749 50.8987 44.5388 51.186C44.032 51.1358 43.3307 50.896 42.875 50.6764C41.9902 50.2504 40.2604 49.8948 39.9763 48.9661C40.0524 48.5886 40.0195 48.7125 40.3228 48.383Z" fill="#55210E"/>
<path d="M75.368 59.1914C75.7494 59.2254 76.0087 59.2361 76.2711 59.4619C76.5253 60.256 75.3711 61.0804 74.6999 61.4783C73.0667 61.52 73.4297 59.6364 75.368 59.1914Z" fill="#B16C37"/>
<path d="M30.0033 55.6003C30.4764 55.6338 30.6763 55.6781 31.0286 55.9504C31.4447 56.7906 30.3247 57.3104 29.6426 57.6725C27.9951 57.4212 28.3719 55.9767 30.0033 55.6003Z" fill="#EBA449"/>
<path d="M43.2167 83.7423C44.8691 83.9671 44.4284 85.1605 43.2604 85.8029C41.5393 85.4517 41.4371 84.2243 43.2167 83.7423Z" fill="#E49A44"/>
<path d="M60.6955 85.0566C62.2717 84.9885 62.3805 86.1434 61.0788 86.8413C59.3215 86.9408 59.4222 85.7572 60.6955 85.0566Z" fill="#E49A44"/>
<path d="M30.0961 78.6005C31.2101 78.9239 31.0541 79.9417 30.1676 80.5241C29.1745 79.9578 28.7216 79.0198 30.0961 78.6005Z" fill="#EBA449"/>
<path d="M77.1569 62.3025C77.6094 62.2864 77.7111 62.2614 78.0091 62.573C78.1352 63.1859 77.4792 63.5272 76.9677 63.7737C76.5721 63.7234 76.4358 63.6802 76.2874 63.3386C76.3891 62.8094 76.7003 62.6218 77.1569 62.3025Z" fill="#EBA449"/>
<path d="M55.3137 5.80236C58.8578 2.95319 62.3602 0.961612 67.3901 1.01501C72.1474 1.06563 76.9403 2.71738 80.2911 5.70972C81.966 7.21731 82.7318 9.06384 83.5301 10.9927C83.6003 11.1623 83.6837 11.1348 83.8688 11.1816C84.2104 10.9467 84.0355 10.376 83.9837 10.0148C86.8586 10.2152 89.525 11.4137 91.3972 13.3467C97.4247 19.6786 91.7654 29.7547 81.9589 27.8787C82.3281 26.7749 82.6332 25.6556 82.8752 24.525C83.4823 25.0872 85.1593 25.9566 85.9942 25.6441C84.9142 24.9751 84.3498 25.0204 83.1782 24.1074C84.3488 24.0157 87.1138 23.679 87.7891 22.769C87.3203 22.63 86.102 23.0655 85.5396 23.143C82.1369 23.6132 78.8897 22.8632 76.2436 20.905C75.6741 20.4835 73.8406 18.9351 73.6443 18.2796C73.7674 18.0725 73.9382 18.0436 74.1894 17.9493C75.6599 17.4961 76.8487 16.9513 77.8199 15.8621L76.205 16.4902C73.2762 17.7869 69.9802 18.297 66.726 17.9572C62.8697 17.5281 59.9083 16.0915 57.5449 13.4084C57.2571 13.1102 56.9256 12.5317 56.4975 12.0747C56.8249 13.0001 57.2358 14.0289 57.9009 14.8121C58.2121 15.1 58.3636 15.1426 58.4399 15.4882C58.2304 15.6857 58.2161 15.6743 57.9415 15.7703C55.3737 16.73 52.4958 17.157 49.8019 16.284C48.1239 15.7006 47.1649 15.046 46.0869 13.7565C46.4012 14.6609 46.6056 14.8675 47.2859 15.6247C47.7191 15.99 48.189 16.3592 48.6334 16.7178L48.5622 16.8161C48.0141 16.943 47.0439 16.8326 46.3534 16.8672L46.2791 16.9509C46.7154 17.3566 48.6751 17.3966 49.3727 17.4129C49.0635 18.3564 48.6222 19.3801 48.2886 20.3666C47.7578 20.2351 47.3327 20.1249 46.8425 19.8977C44.4567 18.7819 42.6557 16.8927 41.8207 14.629C41.329 13.1189 41.3809 11.5117 41.9693 10.0287C42.8831 7.75954 45.1782 5.43996 47.6591 4.4193C50.3541 3.31022 53.4405 3.4396 56.1904 4.31152C55.7541 4.89209 55.6219 5.15666 55.3137 5.80236Z" fill="#FEFEFE"/>
<path d="M80.2911 5.70972C81.966 7.21731 82.7318 9.06384 83.5301 10.9927C83.6003 11.1623 83.6837 11.1348 83.8688 11.1816C84.2104 10.9467 84.0355 10.376 83.9837 10.0148C86.8586 10.2152 89.525 11.4137 91.3972 13.3467C97.4247 19.6786 91.7654 29.7547 81.9589 27.8787C82.3281 26.7749 82.6332 25.6556 82.8752 24.525C83.4823 25.0872 85.1593 25.9566 85.9942 25.6441C84.9142 24.9751 84.3498 25.0204 83.1782 24.1074C84.3488 24.0157 87.1138 23.679 87.7891 22.769C87.3203 22.63 86.102 23.0655 85.5396 23.143C82.1369 23.6132 78.8897 22.8632 76.2436 20.905C75.6741 20.4835 73.8406 18.9351 73.6443 18.2796C73.7674 18.0725 73.9382 18.0436 74.1894 17.9493C76.505 20.568 80.3674 22.2667 84.126 22.3514C86.5179 22.4052 89.2372 21.4667 90.3132 19.4641C90.5664 18.9935 90.6722 17.9404 90.6762 17.4252C90.7006 15.8314 90.001 14.2949 88.7328 13.158C87.1576 11.7692 84.5226 11.1455 82.3718 11.3462C81.9325 11.3871 81.3671 11.3588 80.9165 11.3575C80.9369 10.3105 81.0752 9.3518 80.9125 8.28796C80.7762 7.40089 80.3898 6.56973 80.2911 5.70972Z" fill="#DFDDE5"/>
<path d="M41.8207 14.629C41.8795 14.4977 41.9072 14.4355 41.9798 14.3082C44.148 15.8275 44.7828 16.4659 47.5829 16.5569C47.4171 16.1744 47.353 16.0431 47.2859 15.6247C47.7191 15.99 48.189 16.3592 48.6334 16.7178L48.5622 16.8161C48.0141 16.943 47.0439 16.8326 46.3534 16.8672L46.2791 16.9509C46.7154 17.3566 48.6751 17.3966 49.3727 17.4129C49.0635 18.3564 48.6222 19.3801 48.2886 20.3666C47.7578 20.2351 47.3327 20.1249 46.8425 19.8977C44.4567 18.7819 42.6557 16.8927 41.8207 14.629Z" fill="#DFDDE5"/>
<path d="M57.5449 13.4084C58.2548 13.4017 59.4487 14.5117 60.2022 14.9174C62.349 16.0857 64.7429 16.8557 67.2385 17.1805C68.7823 17.3948 69.7931 17.2828 71.284 17.1971C72.4128 17.1322 75.4352 16.2459 76.205 16.4902C73.2762 17.7869 69.9802 18.297 66.726 17.9572C62.8697 17.5281 59.9083 16.0915 57.5449 13.4084Z" fill="#DFDDE5"/>
<path d="M57.9009 14.8121C58.2121 15.1 58.3636 15.1426 58.4399 15.4882C58.2304 15.6857 58.2161 15.6743 57.9415 15.7703C55.3737 16.73 52.4958 17.157 49.8019 16.284C50.1303 15.9201 50.77 16.0543 51.2795 16.1184C53.5727 16.4064 55.026 15.8237 57.1005 15.1202L57.2124 15.0552C57.5897 15.0085 57.6131 15.0146 57.9009 14.8121Z" fill="#DFDDE5"/>
<path d="M57.9009 14.8121C58.2121 15.1 58.3636 15.1426 58.4399 15.4882C58.2304 15.6857 58.2161 15.6743 57.9415 15.7703C57.7168 15.1268 57.6182 15.6697 57.1005 15.1202L57.2124 15.0552C57.5897 15.0085 57.6131 15.0146 57.9009 14.8121Z" fill="#DACBCB"/>
<path d="M57.2124 15.0552C56.8849 14.2536 56.4487 13.366 56.3215 12.5254C56.2778 12.239 56.3083 12.2821 56.4975 12.0747C56.8249 13.0001 57.2358 14.0289 57.9009 14.8121C57.6131 15.0146 57.5897 15.0085 57.2124 15.0552Z" fill="#DFDDE5"/>
<path d="M59.17 16.0933C63.2145 18.9113 67.7063 19.5295 72.6609 18.5028C74.4162 21.2293 77.1172 23.0051 80.5128 23.8502C80.9715 23.9661 81.4403 24.0444 81.9152 24.0842C81.1667 26.6342 80.3003 29.1422 79.7033 31.7244C79.6352 32.0218 79.5498 32.3634 79.4582 32.6546C78.5623 32.6541 77.7223 32.6754 76.8335 32.5605C77.0043 31.8172 77.9867 27.8693 77.886 27.3505C77.4253 27.7249 76.4542 31.743 76.2487 32.5113C75.4667 32.471 72.6304 32.3691 72.1046 32.1054C71.9185 32.1802 71.9216 32.1945 71.7202 32.1895C70.149 31.8258 68.1365 31.7559 66.5562 31.3987C66.429 31.1897 66.5246 31.0897 66.5968 30.7849C66.9792 29.0178 67.5284 27.0281 67.9667 25.2467C67.8731 24.9823 67.9321 24.9824 67.7287 24.8854C67.5507 25.434 67.3758 25.9833 67.204 26.5335C66.7046 28.1757 66.3446 29.6174 65.8961 31.2455C65.405 31.1969 64.7816 31.1524 64.3158 31.0447C63.548 31 61.5446 30.5368 60.6568 30.3775L60.5602 30.4664C60.1026 30.4594 59.6734 30.3713 59.29 30.1479C59.0429 29.9882 58.63 29.9193 58.3209 29.8466C56.767 29.5158 55.8639 29.2955 54.3782 28.7878C54.907 27.5911 55.3138 26.027 55.6727 24.7575L55.5629 24.4667L55.4165 24.4835C55.2344 25.0139 54.0649 28.4876 53.8778 28.6633L53.6581 28.6053C52.7998 28.3436 51.7015 27.9822 50.8463 27.7708C50.5229 27.7042 50.2849 27.6235 49.9737 27.5239L50.1212 27.4926C49.7632 27.2957 48.2266 26.8288 47.5829 26.5403C48.4076 23.8776 49.3219 21.4677 49.9625 18.7475C50.0958 18.2692 50.2392 17.7802 50.3612 17.301C53.8351 17.9996 56.1314 17.6007 59.17 16.0933Z" fill="#FEFEFE"/>
<path d="M59.17 16.0933C63.2145 18.9113 67.7063 19.5295 72.6609 18.5028C74.4162 21.2293 77.1172 23.0051 80.5128 23.8502C80.9715 23.9661 81.4403 24.0444 81.9152 24.0842C81.1667 26.6342 80.3003 29.1422 79.7033 31.7244C79.6352 32.0218 79.5498 32.3634 79.4582 32.6546C78.5623 32.6541 77.7223 32.6754 76.8335 32.5605C77.0043 31.8172 77.9867 27.8693 77.886 27.3505C77.4253 27.7249 76.4542 31.743 76.2487 32.5113C75.4667 32.471 72.6304 32.3691 72.1046 32.1054C71.9185 32.1802 71.9216 32.1945 71.7202 32.1895C70.149 31.8258 68.1365 31.7559 66.5562 31.3987C66.429 31.1897 66.5246 31.0897 66.5968 30.7849C67.8873 30.6687 69.8318 31.0177 70.9657 30.5825C71.6013 30.3385 72.2907 27.5709 72.5307 26.9175C73.1358 25.2729 73.7277 23.6463 74.2402 21.9913C73.6799 21.4824 73.025 20.8051 72.4789 20.2664C66.8206 20.8106 64.569 19.9251 59.8005 17.6152C58.4175 17.8319 56.8707 18.2959 55.4663 18.5725C53.3693 18.9857 52.0239 18.9026 49.9625 18.7475C50.0958 18.2692 50.2392 17.7802 50.3612 17.301C53.8351 17.9996 56.1314 17.6007 59.17 16.0933Z" fill="#DFDDE5"/>
<path d="M74.4772 22.1362C75.5013 22.9577 76.0199 23.0816 77.1009 23.6899C76.4409 26.4005 75.5958 28.9423 74.9409 31.6696C74.5433 31.6485 72.5633 31.5761 72.3141 31.4898C72.665 30.2877 73.1084 28.6652 73.2894 27.4525C73.5182 25.7112 74.2799 23.9564 74.4772 22.1362Z" fill="#FEFEFE"/>
<path d="M71.7202 32.1895C71.9013 31.2549 72.5592 27.9219 73.2894 27.4525C73.1084 28.6652 72.665 30.2877 72.3141 31.4898L72.1046 32.1054C71.9185 32.1802 71.9216 32.1945 71.7202 32.1895Z" fill="#55210E"/>
<path d="M60.3131 26.8832C60.4839 26.5452 60.3975 26.5806 60.6944 26.4033C60.4189 27.6833 60.1331 28.9009 59.7324 30.157C59.9073 30.1964 60.5277 30.3253 60.6568 30.3775L60.5602 30.4664C60.1026 30.4594 59.6734 30.3713 59.29 30.1479C59.0429 29.9882 58.63 29.9193 58.3209 29.8466C59.0816 29.7123 59.6094 27.6459 59.8026 27.0208L60.3131 26.8832Z" fill="#55210E"/>
<path d="M59.8026 27.0208L60.3131 26.8832C59.949 27.8985 59.6277 29.2929 59.29 30.1479C59.0429 29.9882 58.63 29.9193 58.3209 29.8466C59.0816 29.7123 59.6094 27.6459 59.8026 27.0208Z" fill="#DFDDE5"/>
<path d="M59.8026 27.0208C60.3416 25.7614 60.8144 24.1036 61.3727 22.8012C61.6016 22.2681 61.8467 21.2986 62.1365 20.8368C62.0582 21.7815 61.0595 25.4262 60.6944 26.4033C60.3975 26.5806 60.4839 26.5452 60.3131 26.8832L59.8026 27.0208Z" fill="#CBC9CF"/>
<path d="M64.3158 31.0447L64.8965 31.0489C66.0528 30.3692 66.1758 27.4896 67.204 26.5335C66.7046 28.1757 66.3446 29.6174 65.8961 31.2455C65.405 31.1969 64.7816 31.1524 64.3158 31.0447Z" fill="#DFDDE5"/>
<path d="M53.6581 28.6053L53.7426 28.4885C53.59 27.6505 54.8348 24.596 55.39 23.8309C55.3951 24.0042 55.3941 24.3242 55.4165 24.4835C55.2344 25.0139 54.0649 28.4876 53.8778 28.6633L53.6581 28.6053Z" fill="#DFDDE5"/>
<path d="M51.312 23.4499L51.6578 23.3334C51.5307 24.4776 50.349 27.1317 50.8463 27.7708C50.5229 27.7042 50.2849 27.6235 49.9737 27.5239L50.1212 27.4926C50.5381 26.2644 50.9337 24.7135 51.312 23.4499Z" fill="#55210E"/>
<path d="M55.39 23.8309C55.9646 22.462 56.3673 21.0193 56.9215 19.6599C56.892 20.8924 56.0714 22.2665 55.8456 23.5305C55.7958 23.8099 55.7216 24.5821 55.6727 24.7575L55.5629 24.4667L55.4165 24.4835C55.3941 24.3242 55.3951 24.0042 55.39 23.8309Z" fill="#AFA9B0"/>
<path d="M51.312 23.4499C51.489 22.8091 52.3951 19.7178 52.7592 19.3775C52.747 19.5675 52.5344 20.073 52.4632 20.3198C52.1825 21.3218 51.9141 22.3263 51.6578 23.3334L51.312 23.4499Z" fill="#AFA9B0"/>
<path d="M67.7287 24.8854C67.864 24.1774 68.346 22.1552 68.7924 21.6163C68.765 22.4046 67.9453 23.8096 67.9667 25.2467C67.8731 24.9823 67.9321 24.9824 67.7287 24.8854Z" fill="#AFA9B0"/>
<path d="M47.4263 26.8927C49.7846 27.723 51.612 28.5567 54.1585 29.3015C60.49 31.1533 67.387 32.5754 74.0297 33.046C75.8521 33.2245 77.4558 33.3669 79.3016 33.3749C78.9528 34.6316 78.5175 38.2887 78.0213 39.012C76.8365 39.6441 70.1348 39.2364 68.6094 39.0641C65.6907 38.7373 62.7375 38.2725 59.8829 37.6451C57.2154 37.0591 47.289 34.5508 46.032 32.5076C45.5439 31.7156 47.0673 27.9515 47.4263 26.8927Z" fill="#FEFEFE"/>
<path d="M74.0297 33.046C75.8521 33.2245 77.4558 33.3669 79.3016 33.3749C78.9528 34.6316 78.5175 38.2887 78.0213 39.012C76.8365 39.6441 70.1348 39.2364 68.6094 39.0641C70.4887 38.5468 70.4012 38.4772 72.608 38.3572C73.2274 36.8542 73.8467 34.6254 74.0297 33.046Z" fill="#DFDDE5"/>
<path d="M44.4891 62.2364C46.149 61.3651 47.5005 60.9779 49.4368 61.4031C51.9232 61.9498 54.0598 63.3449 55.3768 65.281C58.5853 69.9946 55.7368 75.299 49.0697 73.7588C44.934 72.8029 41.2346 68.4966 42.5294 64.6968C42.7014 64.1921 43.2389 63.124 43.7292 62.8179C43.965 62.5378 44.1692 62.4372 44.4891 62.2364Z" fill="#BEA9A9"/>
<path d="M44.8762 62.6565C46.4988 61.7774 47.7659 61.7976 49.6341 62.0956C54.5622 62.882 58.871 70.1407 53.7344 72.9301C50.3744 74.7542 45.4879 72.3549 43.8316 69.5491C42.8596 67.9025 42.3159 64.5617 44.1718 63.2037L44.8762 62.6565Z" fill="#60311E"/>
<path d="M47.3785 62.5136C48.069 62.4678 48.7635 62.5232 49.4337 62.6776C51.5561 63.1969 53.352 64.4462 54.4168 66.1444C55.5537 67.9163 55.5771 69.1741 54.9832 71.0598C54.0995 71.8091 53.7141 72.0782 52.5293 72.3218C45.4147 73.2078 40.7623 63.3206 47.3785 62.5136Z" fill="#E3CEB4"/>
<path d="M46.5476 63.3788C48.3161 63.2943 48.7859 64.8196 46.9452 65.5348C45.1019 65.6451 44.6763 64.2905 46.5476 63.3788Z" fill="#FEFEFE"/>
<path d="M48.9629 63.4599C50.2056 63.4226 52.2059 64.2218 50.6754 65.4475C49.7581 65.6585 47.5137 64.5412 48.9629 63.4599Z" fill="#FEFEFE"/>
<path d="M47.2056 70.1915C46.6513 69.9036 46.3361 69.6983 46.4693 69.1061L46.6585 68.9948C46.9829 69.0281 47.1354 69.2067 47.3866 69.4103C47.6978 69.7077 47.8819 69.8283 47.9937 70.2181L47.9347 70.3913C47.5961 70.423 47.5635 70.3718 47.2056 70.1915Z" fill="#FEFEFE"/>
<path d="M52.2731 65.2929C52.6148 65.4098 53.1202 65.7492 53.1873 66.0927C53.2453 66.3929 53.0612 66.4803 52.8537 66.6991C51.9314 66.533 51.8581 65.9139 52.2731 65.2929Z" fill="#FEFEFE"/>
<path d="M43.4943 65.6861C43.7763 66.0081 43.7751 66.8845 43.9086 67.3621C44.714 70.2429 48.2022 72.8996 51.668 72.836L51.7931 72.8333L51.7747 72.8656C51.133 73.1173 50.293 72.9991 49.6137 72.8951C46.4327 72.4122 42.7196 68.639 43.4943 65.6861Z" fill="#9A7265"/>
<path d="M44.4891 62.2364L44.8762 62.6565L44.1718 63.2037C44.2111 62.9231 44.2389 63.0529 44.0775 62.8024L44.1527 62.7751C43.8649 62.883 44.0026 62.8806 43.7292 62.8179C43.965 62.5378 44.1692 62.4372 44.4891 62.2364Z" fill="#DACBCB"/>
<path d="M67.749 84.6185C66.4809 84.7063 63.3884 83.8229 62.0806 83.4726C58.8894 82.6197 54.8826 80.2454 56.0114 76.8355C56.5432 75.2282 59.5463 75.634 60.0355 74.412C59.5555 73.9147 58.7134 74.6485 58.086 73.8081C58.2334 73.6495 58.5517 73.6074 58.7846 73.5465C60.8073 73.0116 62.2646 74.0921 64.1836 74.291C65.4212 74.4191 66.967 74.2149 68.2209 74.0536C69.5836 75.0992 70.385 76.9493 70.5101 78.51C70.6036 79.7186 70.3819 80.929 69.8613 82.0498C69.1514 83.426 68.9958 83.5837 67.749 84.6185Z" fill="#8C4A20"/>
<path d="M58.568 94.9997C60.49 94.5016 61.7846 93.8843 63.5439 93.0914C63.9528 92.9077 65.2565 93.0018 65.7172 92.9095C67.4663 92.7276 69.2816 92.1766 70.865 91.4903C70.743 92.638 70.6179 94.2023 70.4053 95.3133C70.0697 97.0604 69.6273 98.9096 69.2419 100.658C70.206 102.112 71.5107 103.431 68.7192 103.899C67.028 104.101 63.246 103.987 61.748 103.232C60.2755 102.489 60.0395 100.757 59.6999 99.414C59.5036 98.6498 59.2971 97.8882 59.0785 97.1294L58.568 94.9997Z" fill="#F6C062"/>
<path d="M58.568 94.9997C60.49 94.5016 61.7846 93.8843 63.5439 93.0914C63.9528 92.9077 65.2565 93.0018 65.7172 92.9095C67.4663 92.7276 69.2816 92.1766 70.865 91.4903C70.743 92.638 70.6179 94.2023 70.4053 95.3133C70.0697 97.0604 69.6273 98.9096 69.2419 100.658C68.9572 99.7312 69.548 100.014 68.3511 99.5744C68.6246 97.6839 68.9165 97.0443 66.4646 96.6706C63.9019 96.28 61.5477 96.3176 59.0785 97.1294L58.568 94.9997Z" fill="#E49A44"/>
<path d="M68.7192 103.899C70.2731 101.638 67.6931 101.639 68.3511 99.5744C69.548 100.014 68.9572 99.7312 69.2419 100.658C70.206 102.112 71.5107 103.431 68.7192 103.899Z" fill="#EBA449"/>
<path d="M37.6218 91.9284C38.5349 92.3809 39.1734 92.6551 40.1765 92.9579C43.1469 93.8538 45.8632 95.0203 49.0056 95.4925C48.9781 97.0577 48.7056 100.298 47.9622 101.707C47.3805 102.81 43.9873 103.22 42.5802 103.172C41.5088 103.256 39.6582 103.186 38.6798 102.762C37.3345 102.18 39.1204 100.753 39.6165 100.149C39.3688 99.2545 39.0122 98.3935 38.7513 97.4062C38.5085 96.8059 38.2704 95.3608 38.1582 94.7166C37.9634 93.921 37.684 92.7258 37.6218 91.9284Z" fill="#E49A44"/>
<path d="M38.1582 94.7166C38.8882 94.8564 40.3004 95.6627 41.0968 95.9897C43.6212 97.0254 46.5496 97.692 45.8164 100.785C45.3378 102.802 43.7044 102.427 42.5802 103.172C41.5088 103.256 39.6582 103.186 38.6798 102.762C37.3345 102.18 39.1204 100.753 39.6165 100.149C39.3688 99.2545 39.0122 98.3935 38.7513 97.4062C38.5085 96.8059 38.2704 95.3608 38.1582 94.7166Z" fill="#F6C062"/>
<path d="M38.7513 97.4062L38.9677 97.2799C39.4906 97.5065 40.7789 99.9408 39.6165 100.149C39.3688 99.2545 39.0122 98.3935 38.7513 97.4062Z" fill="#F8D198"/>
<path d="M19.7474 69.2343C20.1724 69.1818 20.9474 69.2943 21.2889 69.1388C21.4069 69.3302 21.3463 69.3196 21.602 69.3848C22.8237 69.6964 24.1345 69.6531 25.2187 70.2681C24.7166 70.7742 24.4827 70.8787 23.7903 71.0999C22.3145 71.598 21.0539 71.7274 19.83 72.1166C17.3637 72.8324 11.9191 72.7778 9.41197 71.8024C9.98238 71.3726 10.3484 71.1724 11.0383 70.9462C13.2842 69.5699 18.8661 69.8003 19.7474 69.2343Z" fill="#F8D198"/>
<path d="M19.7474 69.2343C20.1724 69.1818 20.9474 69.2943 21.2889 69.1388C21.4069 69.3302 21.3463 69.3196 21.602 69.3848C22.8237 69.6964 24.1345 69.6531 25.2187 70.2681C24.7166 70.7742 24.4827 70.8787 23.7903 71.0999C22.3145 71.598 21.0539 71.7274 19.83 72.1166L19.1406 71.9857C18.9467 71.9807 19.0236 71.9925 18.8431 71.8969L18.7758 71.4626C18.685 71.2675 18.689 71.1626 18.6691 70.9561C19.091 70.8891 19.3239 70.8482 19.7616 70.8407L19.9445 70.5183L20.5814 70.6391C20.737 70.1926 20.9602 70.3614 20.7422 69.8356C20.7107 69.8341 20.6177 69.8321 20.5759 69.8175C19.6581 69.4952 18.6687 69.613 17.7142 69.8428C17.4559 70.1394 17.3762 70.247 17.1809 70.5786C16.6323 70.6728 16.5124 70.7013 15.9469 70.6594C15.5004 70.3107 14.9704 70.1263 14.4862 70.5899C13.126 70.6876 13.5793 70.767 12.5833 71.0002C11.9979 71.0107 11.6179 71.0304 11.0383 70.9462C13.2842 69.5699 18.8661 69.8003 19.7474 69.2343Z" fill="#BD8763"/>
<path d="M23.2043 70.0643L23.183 69.967C23.6766 69.9465 24.2802 69.9618 24.6746 70.2112L24.6416 70.3687L24.5371 70.4318C24.1349 70.6773 24.0593 70.7298 23.7903 71.0999C22.3145 71.598 21.0539 71.7274 19.83 72.1166L19.1406 71.9857C18.9467 71.9807 19.0236 71.9925 18.8431 71.8969L18.7758 71.4626C18.685 71.2675 18.689 71.1626 18.6691 70.9561C19.091 70.8891 19.3239 70.8482 19.7616 70.8407L19.9445 70.5183L20.5814 70.6391C21.0629 70.7194 21.9271 70.7014 22.134 70.7586C22.158 70.4606 22.1485 70.4302 22.2942 70.1685C22.5534 70.0047 22.8719 70.0564 23.2043 70.0643Z" fill="#D9AB85"/>
<path d="M18.6691 70.9561C19.091 70.8891 19.3239 70.8482 19.7616 70.8407C20.0374 70.8943 20.3457 70.9335 20.5921 71.039C20.1346 71.1971 20.11 71.138 19.811 71.4511C19.7617 71.9416 19.7398 71.882 19.1406 71.9857C18.9467 71.9807 19.0236 71.9925 18.8431 71.8969L18.7758 71.4626C18.685 71.2675 18.689 71.1626 18.6691 70.9561Z" fill="#E3CEB4"/>
<path d="M22.134 70.7586C22.158 70.4606 22.1485 70.4302 22.2942 70.1685C22.5534 70.0047 22.8719 70.0564 23.2043 70.0643C23.2296 70.3811 23.2358 70.3646 23.0621 70.6413C22.6895 70.8486 22.6229 70.8488 22.134 70.7586Z" fill="#F8D198"/>
<path d="M20.5921 71.039L20.9308 71.1533L20.9271 71.27C20.6574 71.3939 20.1001 71.5651 19.811 71.4511C20.11 71.138 20.1346 71.1971 20.5921 71.039Z" fill="#BD8763"/>
<path d="M14.3169 71.8834C14.5153 72.354 15.0993 72.569 15.5601 72.32L15.5545 72.1425C15.3871 72.0215 15.2824 71.9457 15.0998 71.8418L14.9634 71.7649C15.2034 71.6571 15.3722 71.603 15.5514 71.4244L14.8384 71.1237L14.8315 71.032C15.2454 70.9645 15.4349 70.9147 15.8599 70.9758C16.1524 71.1953 16.5534 71.3725 16.628 71.6016L16.4422 71.8439L16.476 71.9429C17.7961 72.0823 17.1503 71.2587 18.7758 71.4626L18.8431 71.8969C19.0236 71.9925 18.9467 71.9807 19.1406 71.9857L19.83 72.1166C17.3637 72.8324 11.9191 72.7778 9.41197 71.8024C9.98238 71.3726 10.3484 71.1724 11.0383 70.9462C11.6179 71.0304 11.9979 71.0107 12.5833 71.0002L12.3833 71.3506L11.8701 71.4007L11.6736 71.886L11.4983 71.9912C11.7098 72.3943 12.5493 72.2689 12.8762 71.8604C13.323 71.8008 13.7356 71.712 14.1725 71.7852L14.3169 71.8834Z" fill="#C6926B"/>
<path d="M12.8762 71.8604C13.323 71.8008 13.7356 71.712 14.1725 71.7852L14.3169 71.8834L14.1967 72.0023C13.7892 72.0936 13.2573 72.0144 12.8762 71.8604Z" fill="#B16C37"/>
<path d="M17.7142 69.8428C18.6687 69.613 19.6581 69.4952 20.5759 69.8175C20.6177 69.8321 20.7107 69.8341 20.7422 69.8356C20.5644 69.8875 20.2141 69.9804 20.0613 70.0462L19.6931 70.2409C19.2533 70.2259 19.1615 70.2374 18.7293 70.3162L18.5253 70.1787C18.1454 69.8706 18.3017 69.9702 17.7142 69.8428Z" fill="#D9AB85"/>
<path d="M18.5253 70.1787C18.9233 69.8809 19.6197 69.7858 20.0613 70.0462L19.6931 70.2409C19.2533 70.2259 19.1615 70.2374 18.7293 70.3162L18.5253 70.1787Z" fill="#C6926B"/>
<path d="M17.1809 70.5786C17.3762 70.247 17.4559 70.1394 17.7142 69.8428C18.3017 69.9702 18.1454 69.8706 18.5253 70.1787L18.7293 70.3162L18.7619 70.6003C18.6091 70.7415 18.6064 70.7244 18.3846 70.7637C17.8922 70.7145 17.6614 70.6809 17.1809 70.5786Z" fill="#E3CEB4"/>
<path d="M12.5833 71.0002C13.5793 70.767 13.126 70.6876 14.4862 70.5899C14.223 70.8332 14.0623 70.8985 13.9976 71.1887C13.4508 71.1816 12.92 71.1199 12.488 71.4291L12.3833 71.3506L12.5833 71.0002Z" fill="#D9AB85"/>
<path d="M13.9976 71.1887C13.4508 71.1816 12.92 71.1199 12.488 71.4291C13.0294 71.5997 13.6069 71.5745 13.9976 71.1887Z" fill="#BD8763"/>
<path d="M11.8701 71.4007C12.3418 71.4892 12.2292 71.409 12.5417 71.6662L12.5496 71.855C12.2513 72.0382 12.0205 72.0151 11.6736 71.886L11.8701 71.4007Z" fill="#E3CEB4"/>
<path d="M18.3832 70.8072L18.6311 70.8805L18.6691 70.9561C18.3915 71.1115 17.7319 71.1904 17.4598 71.0235C17.6859 70.8497 18.0692 70.8451 18.3832 70.8072Z" fill="#B16C37"/>
<path d="M17.3463 64.0238C18.311 64.0734 19.0888 64.0603 20.0514 63.9648C20.6719 63.9033 21.9878 63.3429 22.3786 63.4697L22.5562 63.8191C22.6353 65.3452 22.2544 66.0762 22.0069 67.5311C20.8676 67.5127 19.7607 67.4938 18.6214 67.5151C17.7005 67.5539 14.6482 67.9271 14.2021 67.6994C14.1657 67.3604 14.8536 66.2577 15.0004 65.732C15.2355 64.8909 15.3227 64.7823 15.3489 63.8697L17.3463 64.0238Z" fill="#F6C062"/>
<path d="M15.3489 63.8697L17.3463 64.0238C17.4345 64.3841 17.5592 64.5314 17.7653 64.8478C18.3542 65.9534 18.4239 66.323 18.6214 67.5151C17.7005 67.5539 14.6482 67.9271 14.2021 67.6994C14.1657 67.3604 14.8536 66.2577 15.0004 65.732C15.2355 64.8909 15.3227 64.7823 15.3489 63.8697Z" fill="#8C4A20"/>
<path d="M17.3463 64.0238C18.311 64.0734 19.0888 64.0603 20.0514 63.9648C20.6719 63.9033 21.9878 63.3429 22.3786 63.4697L22.5562 63.8191C21.4371 64.805 19.2818 65.0551 17.7653 64.8478C17.5592 64.5314 17.4345 64.3841 17.3463 64.0238Z" fill="#F8D198"/>
<path d="M4.03524 71.776C3.2167 70.9029 1.90086 69.0932 2.46578 68.168C3.77988 66.4278 6.55332 67.8394 7.05355 69.4922C7.26356 70.1862 7.55501 70.8416 6.60904 71.0646C5.8747 71.8281 6.08094 72.2976 6.2464 73.2257C5.29758 72.7509 4.82806 72.4418 4.03524 71.776Z" fill="#8C4A20"/>
<path d="M4.03524 71.776C4.32334 71.6563 6.11297 71.2061 6.60904 71.0646C5.8747 71.8281 6.08094 72.2976 6.2464 73.2257C5.29758 72.7509 4.82806 72.4418 4.03524 71.776Z" fill="#773E1E"/>
<path d="M19.7474 69.2343C18.9695 69.4837 17.493 69.229 16.6265 69.3387C14.8543 69.5633 13.0595 69.8538 11.3657 70.3747C10.2775 70.6937 9.44471 71.5856 8.62169 71.4027C8.23312 70.5258 11.535 69.3758 12.3207 69.1764C15.2965 68.4213 18.6731 68.0497 21.7635 68.2461C22.8172 68.3131 26.5463 68.5797 25.6052 70.1043C25.3984 70.1678 25.3745 70.1526 25.2187 70.2681C24.1345 69.6531 22.8237 69.6964 21.602 69.3848C21.3463 69.3196 21.4069 69.3302 21.2889 69.1388C20.9474 69.2943 20.1724 69.1818 19.7474 69.2343Z" fill="#AE7450"/>
<path d="M21.2889 69.1388C23.0454 69.1071 24.1949 69.1164 25.6052 70.1043C25.3984 70.1678 25.3745 70.1526 25.2187 70.2681C24.1345 69.6531 22.8237 69.6964 21.602 69.3848C21.3463 69.3196 21.4069 69.3302 21.2889 69.1388Z" fill="#773E1E"/>
<path d="M25.215 71.3776C25.3825 71.2641 25.654 71.1703 25.856 71.089C24.208 72.9758 21.2544 73.4766 18.6481 73.775C18.1928 73.8296 17.7347 73.8637 17.2755 73.8771C16.5994 73.9765 14.9254 74.0599 14.2555 73.9774C13.2383 73.9927 8.1361 73.6818 8.60949 72.1233L9.41959 72.4785C13.6937 73.7982 21.1221 72.8736 25.1582 71.1171L25.215 71.3776Z" fill="#E3CEB4"/>
<path d="M25.215 71.3776C25.3825 71.2641 25.654 71.1703 25.856 71.089C24.208 72.9758 21.2544 73.4766 18.6481 73.775C18.1928 73.8296 17.7347 73.8637 17.2755 73.8771C16.5994 73.9765 14.9254 74.0599 14.2555 73.9774C13.6988 73.7821 13.1195 73.7302 12.6417 73.3987C13.195 73.4238 13.5921 73.447 14.1401 73.516C16.9688 73.5402 23.0297 72.9829 25.215 71.3776Z" fill="#C6926B"/>
<path d="M12.6417 73.3987C13.195 73.4238 13.5921 73.447 14.1401 73.516C15.4414 73.8027 16.0351 73.7794 17.2755 73.8771C16.5994 73.9765 14.9254 74.0599 14.2555 73.9774C13.6988 73.7821 13.1195 73.7302 12.6417 73.3987Z" fill="#BD8763"/>
<path d="M14.2555 73.9774C13.2383 73.9927 8.1361 73.6818 8.60949 72.1233L9.41959 72.4785L9.2764 72.6246C9.6658 73.0761 11.9218 73.301 12.6417 73.3987C13.1195 73.7302 13.6988 73.7821 14.2555 73.9774Z" fill="#B16C37"/>
<path d="M46.4266 60.7705C49.5751 59.775 52.8446 60.6121 55.1053 62.7631C55.152 63.3345 55.7754 63.6814 55.5375 64.0311C54.9954 63.9448 55.5009 63.8036 54.8317 63.6666C52.2873 61.4516 50.0337 60.5661 46.4266 60.7705Z" fill="#DACBCB"/>
<path d="M22.6783 73.775C22.8668 74.3287 22.951 74.5186 23.2407 75.0373C20.9559 75.4038 19.9094 75.5158 17.5964 75.4047C17.9158 74.8662 18.0017 74.7229 18.6452 74.4854C20.0559 74.4057 21.3344 74.1423 22.6783 73.775Z" fill="#E49A44"/>
<path d="M55.1053 62.7631C57.6375 65.0377 58.3137 67.5828 57.1534 70.577C57.369 67.2468 56.8921 66.4034 54.8317 63.6666C55.5009 63.8036 54.9954 63.9448 55.5375 64.0311C55.7754 63.6814 55.152 63.3345 55.1053 62.7631Z" fill="#A18F8F"/>
<path d="M17.5964 75.4047C15.0605 75.4746 13.4 75.1475 11.0268 74.446C10.3806 74.2543 8.21369 74.1755 8.06471 73.344C8.85519 73.4291 9.33966 74.0097 10.1562 74.2211C13.0317 74.9657 15.6881 74.5947 18.6452 74.4854C18.0017 74.7229 17.9158 74.8662 17.5964 75.4047Z" fill="#773E1E"/>
<path d="M55.7734 74.7408L55.8954 74.7238C57.0375 74.5643 56.6907 74.119 57.2114 73.9577C57.5521 74.1522 57.4992 74.0581 57.607 74.3358C57.4544 74.6342 57.3853 74.6315 57.0548 74.8053L56.707 74.9899C56.2066 75.3088 56.1782 75.367 55.5934 75.2586L55.4612 75.0759C55.5548 74.8134 55.4754 74.9343 55.7734 74.7408Z" fill="#AFA9B0"/>
<path d="M55.7734 74.7408C56.2646 74.7623 56.3775 74.687 56.707 74.9899C56.2066 75.3088 56.1782 75.367 55.5934 75.2586L55.4612 75.0759C55.5548 74.8134 55.4754 74.9343 55.7734 74.7408Z" fill="#BEACA1"/>
<path d="M55.8832 73.0179C56.0246 73.0833 56.1741 73.2043 56.3022 73.2965C56.5798 73.8861 55.9676 74.0473 55.449 74.2695C55.1978 74.2059 55.1276 74.2005 54.9141 74.059C54.9588 73.9479 55.689 73.2553 55.8832 73.0179Z" fill="#BEACA1"/>
<path d="M23.6319 78.9597L23.6817 79.0045C23.7095 79.4651 23.9089 79.56 23.5731 79.9829L23.357 79.9981C23.4638 79.8521 23.4873 79.8136 23.5661 79.655L23.3569 79.5941C23.3101 79.9605 23.2993 80.077 22.9247 80.2651L22.8314 80.1639C22.9343 79.3817 23.3 79.5591 23.6319 78.9597Z" fill="#BD8763"/>
<path d="M11.4653 68.4982C11.6207 68.5292 11.5469 68.5083 11.6834 68.6304C11.5013 68.9812 10.8845 69.1139 10.4869 69.2123C10.27 69.0184 10.313 69.1273 10.2963 68.8976C10.5996 68.6522 11.0488 68.5953 11.4653 68.4982Z" fill="#D9AB85"/>
<path d="M25.1582 71.1171C25.456 70.8652 25.7016 70.5953 26.0852 70.5095L26.1403 70.5826C26.0474 70.8113 26.0297 70.8934 25.856 71.089C25.654 71.1703 25.3825 71.2641 25.215 71.3776L25.1582 71.1171Z" fill="#D9AB85"/>
</svg>
