<svg width="35" height="35" viewBox="0 0 35 35" fill="none" xmlns="http://www.w3.org/2000/svg">
<path d="M33.1762 33.6592C33.4711 33.7789 33.8141 33.8011 34.1297 33.7208C34.2859 33.681 34.4307 33.6173 34.5559 33.5333C34.681 33.4492 34.7839 33.3465 34.8589 33.231C34.9338 33.1155 34.9793 32.9895 34.9926 32.8601C35.006 32.7307 34.987 32.6005 34.9367 32.4769C34.8864 32.3533 34.8059 32.2388 34.6996 32.1398C34.5934 32.0408 34.4635 31.9594 34.3175 31.9001L33.1762 33.6592ZM34.3175 31.9001C30.4494 30.3297 28.8738 28.2475 28.2082 25.9472C27.5083 23.526 27.8097 20.9309 27.8097 18.1628H25.31C25.31 20.6767 24.9871 23.6774 25.7713 26.3878C26.5898 29.2191 28.6082 31.8052 33.1762 33.6592L34.3175 31.9001Z" fill="#008463"/>
<path d="M17.4784 11.3466C17.3279 7.4144 16.6654 3.31577 14.0965 1.16344C10.5259 -1.82573 5.10751 1.38692 5.87455 5.7946C0.898278 5.27474 -2.45674 11.9917 2.55598 15.1568C4.93952 16.6593 7.38011 17.1316 10.2423 17.26C7.34683 17.4216 4.88405 17.932 2.47674 19.4503C-2.5344 22.6138 0.819039 29.3308 5.79689 28.8109C5.02827 33.2186 10.3025 36.249 14.0172 33.4421C16.3105 31.7082 17.1393 28.7206 17.4055 25.5729C17.7035 28.7206 18.5672 31.7082 20.8604 33.4421C24.5752 36.249 29.8478 33.2202 29.0808 28.8109C34.057 29.3308 37.4121 22.6138 32.3993 19.4503C30.0126 17.9446 27.5277 17.4295 24.6259 17.2631C27.5261 17.1411 29.9904 16.6767 32.3993 15.1552C37.4121 11.9932 34.0586 5.27474 29.0808 5.7946C29.8478 1.3885 24.4294 -1.82573 20.8604 1.16344C18.2915 3.31577 17.6274 7.4144 17.4784 11.3466Z" fill="#43BB65"/>
</svg>
